<svg xmlns:xlink="http://www.w3.org/1999/xlink" viewBox="0 0 437.62 437.62" style="shape-rendering:geometricPrecision; text-rendering:geometricPrecision; image-rendering:optimizeQuality; fill-rule:evenodd; clip-rule:evenodd" version="1.1" height="614px" width="614px" xml:space="preserve" xmlns="http://www.w3.org/2000/svg">
 <defs>
  <style type="text/css">
   
    .str0 {stroke:#F8D63A;stroke-width:5.7;stroke-miterlimit:2.61313}
    .str4 {stroke:#2B2A29;stroke-width:3.56;stroke-miterlimit:2.61313}
    .str3 {stroke:#2B2A29;stroke-width:1.48;stroke-miterlimit:2.61313}
    .str1 {stroke:#4F2A22;stroke-width:0.64;stroke-miterlimit:2.61313}
    .str2 {stroke:#FEFEFE;stroke-width:5.7;stroke-linecap:round;stroke-linejoin:round;stroke-miterlimit:2.61313}
    .fil0 {fill:none}
    .fil3 {fill:#FEFEFE}
    .fil1 {fill:#4F2A22}
    .fil2 {fill:#FEFEFE;fill-rule:nonzero}
    .fil4 {fill:#2B2A29;fill-rule:nonzero}
   
  </style>
 </defs>
 <g id="Layer_x0020_1">
  <metadata id="CorelCorpID_0Corel-Layer"></metadata>
  <circle r="215.96" cy="218.81" cx="218.81" class="fil0 str0"></circle>
  <path d="M9.62 218.82c0,-57.7 23.46,-110 61.33,-147.87 37.86,-37.87 90.17,-61.32 147.86,-61.32 57.7,0 110,23.45 147.87,61.32 37.87,37.87 61.32,90.17 61.32,147.87 0,57.69 -23.45,110 -61.32,147.86 -37.87,37.87 -90.17,61.32 -147.87,61.32 -57.69,0 -110,-23.45 -147.86,-61.32 -37.87,-37.86 -61.33,-90.17 -61.33,-147.86zm64.15 0c0,-79.98 65.07,-145.05 145.04,-145.05 79.98,0 145.04,65.07 145.04,145.05 0,79.97 -65.06,145.04 -145.04,145.04 -79.97,0 -145.04,-65.07 -145.04,-145.04z" class="fil1"></path>
  <circle r="161.96" cy="218.81" cx="218.81" class="fil0"></circle>
  <path d="M78.97 103.53l4.64 -4.92 13.67 12.89c-0.12,0.26 -0.36,0.63 -0.71,1.11 -0.35,0.48 -0.74,0.95 -1.17,1.41 -0.92,0.97 -1.74,1.49 -2.46,1.57 -0.73,0.07 -1.51,-0.31 -2.38,-1.12l-11.59 -10.94zm10.86 0.95l-4.64 4.92 -12.21 -11.52c0.16,-0.26 0.42,-0.64 0.77,-1.14 0.35,-0.5 0.72,-0.96 1.11,-1.37 0.89,-0.95 1.7,-1.48 2.41,-1.58 0.71,-0.11 1.52,0.27 2.43,1.13l10.13 9.56zm0.54 -13.02l4.67 -4.96 13.67 12.9c-0.14,0.27 -0.39,0.65 -0.75,1.14 -0.35,0.47 -0.74,0.95 -1.17,1.4 -0.91,0.97 -1.73,1.49 -2.45,1.57 -0.72,0.07 -1.52,-0.3 -2.38,-1.12l-11.59 -10.93zm10.89 0.91l-4.68 4.95 -12.2 -11.52c0.18,-0.28 0.44,-0.66 0.78,-1.16 0.34,-0.49 0.72,-0.95 1.13,-1.38 0.87,-0.93 1.68,-1.45 2.41,-1.55 0.73,-0.11 1.55,0.27 2.45,1.12l10.11 9.54zm-2.44 1.74l-11.95 12.66 -3.91 -3.7 11.94 -12.66 3.92 3.7z" class="fil2"></path>
  <path d="M102.07 80.66l5.31 -4.19 11.64 14.75c-0.15,0.24 -0.44,0.57 -0.86,0.99 -0.43,0.43 -0.88,0.84 -1.37,1.22 -1.05,0.83 -1.93,1.23 -2.66,1.19 -0.73,-0.03 -1.46,-0.51 -2.19,-1.44l-9.87 -12.52zm10.61 2.52l-5.32 4.19 -10.39 -13.18c0.2,-0.23 0.51,-0.56 0.93,-1.01 0.42,-0.45 0.86,-0.85 1.33,-1.22 1,-0.79 1.86,-1.19 2.58,-1.19 0.72,0.01 1.47,0.5 2.23,1.47l8.64 10.94z" class="fil2" id="_1"></path>
  <path d="M136.94 63.35l4.95 7.84c0.45,0.7 0.65,1.31 0.61,1.85 -0.03,0.53 -0.24,1.15 -0.64,1.85 -0.44,0.81 -1.21,1.75 -2.31,2.85 -1.09,1.1 -2.29,2.05 -3.56,2.86 -2.42,1.52 -4.84,2.47 -7.29,2.84 -2.46,0.37 -4.8,0.02 -7.03,-1.04 -2.23,-1.06 -4.24,-2.99 -5.99,-5.78 -1.68,-2.66 -2.52,-5.24 -2.53,-7.75 0,-2.51 0.67,-4.82 2.01,-6.95 1.34,-2.13 3.18,-3.93 5.51,-5.4 1.56,-0.99 3.01,-1.68 4.37,-2.07 1.34,-0.39 2.5,-0.5 3.48,-0.31 0.99,0.19 1.71,0.67 2.18,1.42 0.35,0.55 0.52,1.14 0.51,1.75 -0.01,0.63 -0.15,1.17 -0.4,1.66 -0.88,-0.01 -1.91,0.11 -3.09,0.36 -1.18,0.26 -2.41,0.78 -3.68,1.59 -1.39,0.87 -2.43,1.95 -3.15,3.23 -0.72,1.28 -1.03,2.67 -0.93,4.16 0.11,1.5 0.64,3.01 1.6,4.54 1.05,1.66 2.21,2.85 3.5,3.59 1.29,0.73 2.62,1.04 4.01,0.92 1.38,-0.12 2.74,-0.6 4.07,-1.44 0.62,-0.39 1.16,-0.81 1.59,-1.27 0.44,-0.45 0.75,-0.82 0.95,-1.13l-2.78 -4.4 -4.4 2.78c-0.31,-0.16 -0.65,-0.39 -1.02,-0.7 -0.38,-0.3 -0.7,-0.68 -0.99,-1.14 -0.49,-0.77 -0.67,-1.46 -0.53,-2.06 0.13,-0.59 0.49,-1.08 1.1,-1.45l6.33 -4c0.67,-0.42 1.33,-0.58 1.95,-0.45 0.63,0.13 1.16,0.55 1.6,1.25z" class="fil2" id="_2"></path>
  <path d="M142.43 54.63l6.33 -2.43 6.73 17.53c-0.22,0.19 -0.59,0.41 -1.12,0.7 -0.52,0.28 -1.08,0.53 -1.66,0.76 -1.24,0.48 -2.21,0.6 -2.89,0.35 -0.69,-0.25 -1.24,-0.93 -1.67,-2.04l-5.72 -14.87zm9.39 5.55l-6.32 2.42 -6.02 -15.66c0.26,-0.16 0.65,-0.4 1.19,-0.7 0.54,-0.3 1.07,-0.55 1.59,-0.75 1.23,-0.47 2.18,-0.6 2.86,-0.39 0.69,0.22 1.25,0.9 1.7,2.07l5 13.01zm6.12 -11.51l6.35 -2.44 6.75 17.53c-0.25,0.19 -0.64,0.43 -1.17,0.71 -0.52,0.29 -1.08,0.53 -1.66,0.76 -1.24,0.48 -2.21,0.6 -2.89,0.35 -0.69,-0.25 -1.24,-0.93 -1.67,-2.03l-5.71 -14.88zm9.42 5.53l-6.35 2.45 -6.03 -15.67c0.29,-0.17 0.69,-0.41 1.21,-0.7 0.52,-0.3 1.06,-0.55 1.62,-0.77 1.18,-0.45 2.14,-0.57 2.84,-0.35 0.71,0.23 1.28,0.91 1.73,2.08l4.98 12.96zm-2.95 0.52l-16.25 6.24 -1.93 -5.02 16.25 -6.25 1.93 5.03z" class="fil2" id="_3"></path>
  <path d="M197.35 58.04l6.76 -2.23c1.17,0.44 2.29,0.82 3.38,1.11 1.08,0.29 2.13,0.53 3.15,0.73 1.01,0.19 1.97,0.38 2.89,0.56 0.06,0.17 0.1,0.33 0.11,0.46 0.02,0.13 0.04,0.26 0.05,0.37 0.19,1.42 -0.04,2.51 -0.69,3.26 -0.65,0.76 -1.6,1.22 -2.83,1.38 -1.24,0.17 -2.64,-0.04 -4.22,-0.62 -1.57,-0.57 -3.24,-1.45 -5,-2.62l-3.6 -2.4zm12.7 -15.14c0.4,3.07 0.15,5.73 -0.76,8.01 -0.92,2.28 -2.35,4.08 -4.29,5.41 -1.93,1.33 -4.2,2.16 -6.82,2.51 -2.62,0.34 -5.04,0.11 -7.24,-0.7 -2.2,-0.8 -4.02,-2.18 -5.47,-4.13 -1.46,-1.95 -2.38,-4.46 -2.78,-7.52 -0.4,-3.06 -0.14,-5.71 0.8,-7.95 0.93,-2.26 2.35,-4.05 4.28,-5.39 1.92,-1.35 4.15,-2.19 6.71,-2.52 2.59,-0.34 5,-0.11 7.22,0.69 2.21,0.81 4.06,2.18 5.54,4.11 1.48,1.93 2.42,4.43 2.81,7.48zm-6.93 0.91c-0.36,-2.82 -1.26,-4.88 -2.67,-6.18 -1.41,-1.3 -3.16,-1.81 -5.24,-1.54 -2.01,0.26 -3.53,1.2 -4.58,2.8 -1.05,1.61 -1.39,3.84 -1.01,6.68 0.38,2.89 1.27,4.98 2.68,6.28 1.41,1.29 3.14,1.81 5.21,1.54 2.06,-0.27 3.6,-1.21 4.63,-2.83 1.04,-1.61 1.36,-3.86 0.98,-6.75z" class="fil2" id="_4"></path>
  <path d="M228.34 58.01c-2.43,-0.2 -4.47,-0.8 -6.12,-1.82 -1.66,-1.02 -2.89,-2.34 -3.69,-3.99 -0.81,-1.65 -1.12,-3.52 -0.95,-5.62l0.25 -2.93 6.78 0.57 -0.22 2.74c-0.14,1.64 0.21,2.94 1.04,3.92 0.82,0.97 1.95,1.51 3.36,1.63 1.42,0.12 2.63,-0.23 3.6,-1.06 0.97,-0.82 1.53,-2.05 1.67,-3.68l0.23 -2.75 6.78 0.56 -0.24 2.93c-0.18,2.1 -0.79,3.89 -1.83,5.39 -1.05,1.49 -2.48,2.6 -4.3,3.33 -1.82,0.72 -3.94,0.99 -6.36,0.78zm-3.83 -12.46l-6.79 -0.56 1.3 -15.67c0.33,-0.03 0.79,-0.06 1.39,-0.1 0.6,-0.04 1.2,-0.04 1.78,0.01 1.28,0.1 2.18,0.4 2.72,0.9 0.54,0.48 0.76,1.35 0.66,2.59l-1.06 12.83zm16.45 1.45l-6.79 -0.56 1.3 -15.75c0.34,-0.04 0.81,-0.07 1.42,-0.1 0.61,-0.04 1.21,-0.04 1.76,0.01 1.28,0.1 2.18,0.4 2.72,0.89 0.54,0.49 0.76,1.36 0.65,2.6l-1.06 12.91z" class="fil2" id="_5"></path>
  <path d="M261.25 40.47l-0.26 -0.06c-0.51,0.86 -1.08,1.81 -1.73,2.85 -0.65,1.03 -1.32,2.13 -2.01,3.26 -0.69,1.13 -1.36,2.27 -2.02,3.4l-1.68 3.72c-0.3,0.51 -0.6,1.05 -0.9,1.62 -0.3,0.57 -0.6,1.12 -0.91,1.66 -0.31,0.54 -0.6,1.05 -0.86,1.54 -0.26,0.48 -0.52,0.94 -0.77,1.38 -0.34,0.01 -0.73,0.02 -1.15,0.02 -0.43,0.01 -0.92,-0.05 -1.47,-0.17 -1.22,-0.29 -2.08,-0.72 -2.63,-1.29 -0.53,-0.58 -0.7,-1.3 -0.51,-2.14 0.08,-0.34 0.22,-0.69 0.4,-1.04 0.2,-0.35 0.42,-0.76 0.67,-1.22 0.48,-0.89 1.13,-2 1.94,-3.34 0.81,-1.34 1.7,-2.79 2.65,-4.35 0.96,-1.56 1.92,-3.1 2.89,-4.61 0.98,-1.51 1.87,-2.91 2.7,-4.18 0.83,-1.27 1.49,-2.25 1.99,-2.97 0.46,-0.16 1.16,-0.25 2.09,-0.26 0.94,-0.02 1.83,0.08 2.7,0.28 1.24,0.28 2.32,0.72 3.22,1.31 0.9,0.59 1.39,1.3 1.47,2.15 0.19,1.65 0.38,3.56 0.57,5.72 0.19,2.16 0.36,4.42 0.52,6.77 0.16,2.35 0.31,4.64 0.45,6.85 0.15,2.2 0.26,4.19 0.34,5.95 -0.39,0.27 -0.93,0.46 -1.59,0.57 -0.67,0.1 -1.42,0.06 -2.26,-0.14 -1.18,-0.27 -1.97,-0.68 -2.36,-1.23 -0.39,-0.55 -0.62,-1.28 -0.68,-2.21l-0.26 -5.18 0.11 -3.86c-0.05,-1.38 -0.12,-2.72 -0.22,-4.02 -0.09,-1.31 -0.17,-2.53 -0.24,-3.69 -0.07,-1.16 -0.14,-2.19 -0.2,-3.09zm-10.79 13.28l3.74 -4.53 10.15 2.34 -0.31 5.32 -13.58 -3.13z" class="fil2" id="_6"></path>
  <path d="M279.27 48.39l6.31 2.44 -6.65 17.23 -3.08 -0.8c-1.02,-0.4 -1.73,-1.02 -2.1,-1.86 -0.38,-0.84 -0.36,-1.78 0.03,-2.81l5.49 -14.2zm-3.42 18.87l1.99 -5.16 13.04 5.04c0.08,0.36 0.11,0.77 0.08,1.25 -0.02,0.49 -0.14,0.99 -0.34,1.52 -0.34,0.88 -0.8,1.47 -1.35,1.77 -0.56,0.29 -1.18,0.3 -1.88,0.03l-11.54 -4.45zm6.68 -8.54l-6.31 -2.44 6.05 -15.65c0.3,0.05 0.74,0.14 1.34,0.27 0.61,0.14 1.16,0.31 1.69,0.52 1.23,0.46 2.02,1.01 2.38,1.62 0.37,0.63 0.32,1.52 -0.13,2.68l-5.02 13z" class="fil2" id="_7"></path>
  <path d="M302.76 58.55l5.87 3.38 -9.37 16.29c-0.28,-0.06 -0.69,-0.21 -1.24,-0.43 -0.55,-0.23 -1.1,-0.51 -1.64,-0.82 -1.16,-0.67 -1.86,-1.34 -2.1,-2.02 -0.23,-0.69 -0.06,-1.55 0.53,-2.58l7.95 -13.82zm1.6 10.79l-5.87 -3.38 8.37 -14.55c0.29,0.1 0.72,0.26 1.29,0.49 0.57,0.22 1.11,0.49 1.63,0.78 1.11,0.63 1.8,1.29 2.06,1.95 0.27,0.67 0.09,1.55 -0.53,2.62l-6.95 12.09z" class="fil2" id="_8"></path>
  <path d="M322.23 67.32l3.16 -4.42 11.14 8.07c-0.01,0.32 -0.1,0.72 -0.25,1.19 -0.16,0.47 -0.4,0.92 -0.71,1.36 -0.56,0.77 -1.15,1.21 -1.77,1.33 -0.62,0.12 -1.23,-0.04 -1.82,-0.47l-9.75 -7.06zm8.28 -0.71l-3.15 4.42 -11.14 -8.07c-0.02,-0.33 0.07,-0.73 0.23,-1.2 0.18,-0.46 0.42,-0.91 0.73,-1.34 0.57,-0.8 1.16,-1.25 1.77,-1.35 0.61,-0.11 1.21,0.04 1.79,0.46l9.77 7.08zm-7.86 -0.47l5.52 4 -13.32 18.39c-0.29,-0.11 -0.7,-0.3 -1.22,-0.59 -0.53,-0.29 -1.04,-0.61 -1.55,-0.98 -1.08,-0.78 -1.7,-1.52 -1.87,-2.23 -0.16,-0.71 0.1,-1.54 0.79,-2.5l11.65 -16.09z" class="fil2" id="_9"></path>
  <path d="M340.44 98.96l-4.4 -4.15c0.21,-1.36 0.48,-2.87 0.78,-4.53 0.31,-1.67 0.67,-3.36 1.07,-5.09 0.4,-1.72 0.81,-3.37 1.21,-4.94 0.41,-1.58 0.82,-2.94 1.25,-4.08 0.57,-0.13 1.2,-0.14 1.9,-0.05 0.71,0.1 1.39,0.45 2.04,1.06 0.73,0.69 1.18,1.41 1.33,2.15 0.16,0.74 0.06,1.72 -0.31,2.92 -0.21,0.79 -0.43,1.59 -0.65,2.42 -0.22,0.83 -0.46,1.66 -0.71,2.51 -0.26,0.84 -0.49,1.68 -0.72,2.5 -0.23,0.83 -0.44,1.62 -0.65,2.35l0.15 0.16c1.44,-0.53 2.75,-1.03 3.93,-1.5 1.18,-0.48 2.37,-0.98 3.58,-1.49 1.2,-0.52 2.52,-1.08 3.95,-1.69 0.49,0.13 0.97,0.35 1.47,0.65 0.49,0.3 0.92,0.62 1.29,0.97 0.66,0.63 1.07,1.34 1.19,2.11 0.13,0.77 -0.13,1.5 -0.79,2.19 -0.24,0.26 -0.69,0.55 -1.36,0.86 -0.66,0.31 -1.64,0.68 -2.94,1.11 -1.3,0.43 -2.97,0.93 -5.01,1.51 -2.04,0.59 -4.57,1.27 -7.6,2.05zm-2.98 -6.18l4.86 4.59 -7.61 8.05c-0.28,-0.13 -0.65,-0.38 -1.12,-0.72 -0.48,-0.34 -0.93,-0.72 -1.36,-1.12 -0.97,-0.92 -1.49,-1.73 -1.57,-2.43 -0.07,-0.7 0.29,-1.47 1.09,-2.31l5.71 -6.06z" class="fil2" id="_10"></path>
  <circle r="191.32" cy="221.74" cx="218.81" class="fil0 str1"></circle>
  <path d="M88.37 334.51l4.43 5.12 -14.2 12.31c-0.25,-0.15 -0.59,-0.42 -1.04,-0.82 -0.44,-0.4 -0.87,-0.84 -1.27,-1.31 -0.88,-1.01 -1.32,-1.87 -1.32,-2.6 0,-0.73 0.45,-1.48 1.35,-2.26l12.05 -10.44zm-2.03 10.72l-4.43 -5.12 12.69 -11c0.24,0.19 0.59,0.48 1.06,0.88 0.46,0.41 0.89,0.83 1.28,1.28 0.84,0.97 1.27,1.81 1.3,2.53 0.04,0.71 -0.42,1.48 -1.36,2.3l-10.54 9.13zm13.7 1.16l4.7 3.96c-0.74,1.04 -1.5,2.05 -2.28,3.03 -0.77,0.99 -1.53,1.92 -2.27,2.8 -0.75,0.89 -1.48,1.75 -2.2,2.58l-5.63 6.5c-0.24,-0.13 -0.61,-0.36 -1.09,-0.68 -0.49,-0.33 -0.96,-0.68 -1.41,-1.07 -0.98,-0.86 -1.53,-1.62 -1.63,-2.3 -0.1,-0.68 0.23,-1.45 0.99,-2.33l10.82 -12.49zm10.45 24.2l-4.71 -4.02c1.26,-1.78 2.52,-3.41 3.78,-4.91 1.26,-1.5 2.48,-2.93 3.64,-4.28l4.91 -5.65c0.26,0.15 0.63,0.37 1.12,0.68 0.48,0.3 0.96,0.65 1.43,1.06 0.97,0.84 1.5,1.6 1.6,2.3 0.11,0.7 -0.21,1.48 -0.95,2.33l-10.82 12.49zm1.4 -1.62l-5.98 6.91c-0.53,0.01 -1.13,-0.12 -1.8,-0.41 -0.67,-0.29 -1.37,-0.75 -2.09,-1.37 -0.76,-0.66 -1.37,-1.4 -1.81,-2.22 -0.45,-0.82 -0.52,-1.84 -0.21,-3.07l2.64 -11.27c0.18,-0.71 0.36,-1.41 0.56,-2.11 0.19,-0.7 0.39,-1.39 0.6,-2.09 0.22,-0.7 0.44,-1.41 0.66,-2.12l-5.88 -3.15 5.75 -6.63c0.6,-0.15 1.27,-0.07 2.02,0.22 0.74,0.29 1.45,0.73 2.13,1.31 0.74,0.65 1.33,1.38 1.78,2.2 0.45,0.82 0.53,1.83 0.23,3.03l-2.63 11.34c-0.16,0.68 -0.33,1.38 -0.52,2.1 -0.2,0.72 -0.39,1.42 -0.6,2.11 -0.2,0.69 -0.42,1.38 -0.67,2.07l5.82 3.15zm31.26 14.57l-4.61 8.04c-0.42,0.72 -0.87,1.19 -1.35,1.4 -0.49,0.22 -1.14,0.32 -1.95,0.3 -0.91,-0.01 -2.11,-0.25 -3.6,-0.71 -1.48,-0.46 -2.88,-1.07 -4.19,-1.82 -2.47,-1.42 -4.45,-3.13 -5.92,-5.12 -1.47,-2 -2.26,-4.23 -2.36,-6.71 -0.11,-2.47 0.67,-5.14 2.31,-7.99 1.57,-2.73 3.46,-4.69 5.68,-5.86 2.21,-1.17 4.58,-1.67 7.09,-1.47 2.51,0.19 4.96,0.97 7.35,2.35 1.6,0.92 2.89,1.88 3.87,2.89 0.98,1.01 1.61,1.99 1.9,2.94 0.29,0.96 0.21,1.82 -0.23,2.6 -0.33,0.56 -0.77,0.99 -1.32,1.27 -0.56,0.28 -1.11,0.41 -1.65,0.41 -0.41,-0.78 -1,-1.64 -1.77,-2.56 -0.77,-0.92 -1.81,-1.76 -3.12,-2.52 -1.42,-0.81 -2.86,-1.24 -4.33,-1.28 -1.47,-0.03 -2.84,0.34 -4.12,1.13 -1.27,0.79 -2.36,1.97 -3.27,3.54 -0.97,1.7 -1.49,3.29 -1.53,4.77 -0.05,1.48 0.3,2.81 1.05,3.98 0.75,1.16 1.81,2.14 3.18,2.92 0.64,0.37 1.26,0.65 1.86,0.82 0.61,0.18 1.09,0.28 1.44,0.31l2.6 -4.51 -4.52 -2.6c0,-0.35 0.04,-0.76 0.14,-1.23 0.1,-0.47 0.29,-0.94 0.55,-1.41 0.46,-0.79 0.99,-1.27 1.57,-1.43 0.59,-0.16 1.2,-0.06 1.81,0.29l6.49 3.73c0.7,0.4 1.13,0.91 1.31,1.53 0.18,0.61 0.06,1.28 -0.36,2zm15.36 4.63l2.74 0.93c1.41,0.47 2.65,0.54 3.72,0.2 1.08,-0.35 1.82,-1.14 2.24,-2.38 0.41,-1.21 0.31,-2.26 -0.29,-3.17 -0.6,-0.91 -1.75,-1.65 -3.43,-2.22 -0.48,-0.17 -0.92,-0.3 -1.33,-0.4 -0.4,-0.11 -0.8,-0.18 -1.19,-0.22l-2.46 7.26zm1.65 6.1l-9.7 -3.28 4.98 -14.73c0.18,-0.53 0.48,-0.9 0.89,-1.11 0.41,-0.2 0.9,-0.3 1.47,-0.3 1.04,-0.02 2.21,0.11 3.51,0.39 1.3,0.28 2.62,0.65 3.98,1.11 3.79,1.29 6.38,3.05 7.75,5.28 1.38,2.24 1.6,4.72 0.68,7.45 -0.57,1.69 -1.54,3.05 -2.9,4.07 -1.37,1.03 -2.97,1.65 -4.82,1.86 -1.84,0.2 -3.79,-0.04 -5.84,-0.74zm-0.67 -1.91l6.2 0.59c0.34,1.12 0.71,2.23 1.1,3.33 0.4,1.11 0.77,2.18 1.13,3.21 0.36,1.03 0.67,1.97 0.95,2.83 0.27,0.86 0.48,1.58 0.63,2.17 -0.54,0.76 -1.21,1.26 -2.02,1.5 -0.8,0.25 -1.61,0.23 -2.43,-0.04 -1.04,-0.36 -1.75,-0.86 -2.15,-1.51 -0.39,-0.65 -0.69,-1.43 -0.91,-2.35l-2.5 -9.73zm-8.22 -3.77l6.41 2.17 -3.71 10.97c-0.28,0 -0.72,-0.07 -1.3,-0.18 -0.59,-0.13 -1.18,-0.29 -1.77,-0.49 -1.26,-0.42 -2.08,-0.95 -2.45,-1.58 -0.37,-0.62 -0.36,-1.5 0.02,-2.62l2.8 -8.27zm31.35 1.82l6.49 1.16 -3.27 18.33c-0.27,0.02 -0.69,0.02 -1.25,0.01 -0.55,-0.01 -1.14,-0.07 -1.75,-0.18 -1.08,-0.19 -1.89,-0.67 -2.42,-1.43 -0.53,-0.75 -0.69,-1.67 -0.5,-2.76l2.7 -15.13zm4.6 11.78l-6.49 -1.16 2.68 -15.04c0.2,-1.11 0.68,-1.93 1.43,-2.44 0.76,-0.51 1.68,-0.68 2.76,-0.48 0.61,0.11 1.18,0.25 1.71,0.44 0.52,0.18 0.91,0.33 1.16,0.43l-3.25 18.25zm-2.42 -3.47l0.94 -5.26 13.25 2.37c0.12,0.32 0.22,0.71 0.28,1.18 0.07,0.46 0.06,0.96 -0.04,1.48 -0.16,0.94 -0.5,1.59 -1,1.95 -0.5,0.36 -1.1,0.48 -1.81,0.36l-11.62 -2.08zm-1.96 11.01l0.94 -5.31 14.7 2.63c0.13,0.29 0.22,0.68 0.28,1.18 0.07,0.49 0.05,1 -0.04,1.53 -0.17,0.94 -0.51,1.58 -1.01,1.95 -0.5,0.36 -1.1,0.48 -1.8,0.35l-13.07 -2.33zm3.82 -21.4l0.94 -5.26 14.47 2.58c0.16,0.3 0.26,0.68 0.32,1.14 0.05,0.47 0.03,0.96 -0.06,1.49 -0.17,0.93 -0.5,1.59 -0.99,1.97 -0.49,0.38 -1.1,0.5 -1.83,0.37l-12.85 -2.29zm40.09 11.03c0.08,2.85 -0.57,5.02 -1.95,6.51 -1.37,1.49 -3.23,2.27 -5.57,2.33 -0.51,0.01 -1.04,0 -1.61,-0.03 -0.56,-0.03 -1.07,-0.08 -1.52,-0.16l-0.43 -16.88c0.51,-0.07 1,-0.14 1.49,-0.19 0.49,-0.06 1,-0.1 1.54,-0.11 1.54,-0.04 2.91,0.25 4.1,0.85 1.18,0.61 2.13,1.55 2.83,2.81 0.7,1.26 1.08,2.88 1.12,4.87zm6.99 -0.31c-0.08,-3.18 -0.78,-5.79 -2.11,-7.83 -1.33,-2.05 -3.14,-3.56 -5.44,-4.52 -2.3,-0.97 -4.98,-1.41 -8.03,-1.34 -1.13,0.03 -2.38,0.12 -3.74,0.28 -1.36,0.15 -2.63,0.43 -3.81,0.85 -0.53,0.22 -0.95,0.49 -1.27,0.81 -0.32,0.32 -0.47,0.78 -0.46,1.37l0.54 21.29c0.04,1.43 0.84,2.4 2.39,2.92 1.17,0.39 2.47,0.63 3.9,0.73 1.43,0.1 2.63,0.13 3.61,0.11 2.97,-0.08 5.55,-0.67 7.73,-1.78 2.19,-1.11 3.87,-2.73 5.05,-4.87 1.18,-2.14 1.72,-4.81 1.64,-8.02zm8.16 -6.25l6.67 -1.19 3.3 18.5c-0.25,0.14 -0.66,0.3 -1.23,0.47 -0.57,0.18 -1.16,0.32 -1.78,0.43 -1.31,0.24 -2.28,0.17 -2.91,-0.2 -0.62,-0.37 -1.04,-1.14 -1.25,-2.31l-2.8 -15.7zm8.17 7.23l-6.67 1.19 -2.95 -16.54c0.29,-0.11 0.72,-0.26 1.3,-0.45 0.59,-0.2 1.17,-0.35 1.75,-0.45 1.26,-0.23 2.21,-0.17 2.84,0.17 0.63,0.34 1.06,1.12 1.28,2.35l2.45 13.73zm9.02 -10.49l6.35 -1.8 5.08 17.92c-0.24,0.13 -0.61,0.31 -1.11,0.54 -0.51,0.24 -1.06,0.44 -1.66,0.61 -1.06,0.3 -1.99,0.23 -2.8,-0.22 -0.8,-0.45 -1.36,-1.2 -1.66,-2.26l-4.2 -14.79zm9.29 8.57l-6.34 1.81 -4.18 -14.7c-0.3,-1.09 -0.23,-2.03 0.22,-2.82 0.46,-0.79 1.21,-1.34 2.27,-1.64 0.6,-0.17 1.18,-0.29 1.73,-0.35 0.55,-0.07 0.97,-0.11 1.24,-0.12l5.06 17.82zm-3.69 -2.05l-1.46 -5.14 12.95 -3.68c0.25,0.24 0.51,0.55 0.77,0.94 0.27,0.39 0.47,0.84 0.62,1.35 0.26,0.92 0.24,1.65 -0.05,2.19 -0.3,0.55 -0.78,0.92 -1.47,1.11l-11.36 3.23zm3.06 10.75l-1.47 -5.18 14.35 -4.08c0.25,0.21 0.51,0.52 0.78,0.94 0.27,0.42 0.48,0.88 0.63,1.4 0.26,0.91 0.24,1.64 -0.05,2.19 -0.3,0.54 -0.79,0.91 -1.47,1.11l-12.77 3.62zm-5.94 -20.91l-1.46 -5.14 14.14 -4.02c0.27,0.2 0.54,0.5 0.79,0.89 0.25,0.39 0.44,0.85 0.59,1.36 0.26,0.92 0.25,1.65 -0.02,2.21 -0.28,0.55 -0.77,0.93 -1.48,1.14l-12.56 3.56zm22.74 -4.56l5.43 -2.88c0.69,1.08 1.34,2.16 1.97,3.25 0.62,1.08 1.2,2.13 1.74,3.16 0.54,1.02 1.06,2.02 1.56,3l3.92 7.65c-0.21,0.18 -0.56,0.43 -1.04,0.76 -0.48,0.33 -0.98,0.63 -1.51,0.9 -1.17,0.6 -2.08,0.81 -2.75,0.66 -0.66,-0.17 -1.26,-0.76 -1.79,-1.79l-7.53 -14.71zm26.35 -0.63l-5.49 2.86c-1.17,-1.84 -2.22,-3.62 -3.14,-5.35 -0.92,-1.73 -1.78,-3.39 -2.6,-4.98l-3.41 -6.66c0.24,-0.19 0.59,-0.45 1.05,-0.78 0.46,-0.34 0.97,-0.65 1.53,-0.94 1.13,-0.58 2.04,-0.79 2.73,-0.62 0.68,0.17 1.28,0.75 1.8,1.76l7.53 14.71zm-0.97 -1.91l4.16 8.13c-0.18,0.49 -0.53,1 -1.05,1.51 -0.52,0.52 -1.2,1 -2.05,1.43 -0.9,0.46 -1.81,0.74 -2.74,0.85 -0.93,0.11 -1.9,-0.21 -2.92,-0.96l-9.47 -6.66c-0.58,-0.43 -1.17,-0.87 -1.74,-1.31 -0.58,-0.44 -1.15,-0.88 -1.72,-1.34 -0.57,-0.46 -1.14,-0.93 -1.72,-1.4l-5.11 4.27 -4 -7.81c0.08,-0.61 0.4,-1.21 0.95,-1.79 0.56,-0.58 1.23,-1.08 2.02,-1.49 0.87,-0.44 1.77,-0.72 2.7,-0.83 0.93,-0.11 1.9,0.2 2.9,0.92l9.53 6.68c0.57,0.41 1.16,0.83 1.75,1.28 0.6,0.45 1.18,0.89 1.74,1.34 0.56,0.44 1.12,0.91 1.67,1.4l5.1 -4.22zm7.4 -18.86l-3.19 -4.4 11.22 -7.98c0.3,0.12 0.65,0.33 1.05,0.63 0.39,0.3 0.75,0.67 1.06,1.1 0.55,0.78 0.78,1.48 0.7,2.1 -0.09,0.63 -0.43,1.15 -1.04,1.58l-9.8 6.97zm1.97 -8.06l3.18 4.4 -11.21 7.97c-0.33,-0.09 -0.68,-0.3 -1.07,-0.61 -0.38,-0.31 -0.73,-0.68 -1.04,-1.11 -0.57,-0.8 -0.8,-1.51 -0.71,-2.12 0.09,-0.61 0.43,-1.13 1.01,-1.54l9.84 -6.99zm-2.96 7.29l5.56 -3.95 13.16 18.52c-0.19,0.24 -0.5,0.57 -0.94,0.97 -0.45,0.4 -0.92,0.79 -1.43,1.15 -1.09,0.77 -2,1.13 -2.72,1.06 -0.72,-0.07 -1.43,-0.59 -2.12,-1.56l-11.51 -16.19zm34.77 -5.92c1.11,-1.16 1.69,-2.19 1.76,-3.1 0.06,-0.9 -0.2,-1.63 -0.78,-2.19 -0.54,-0.51 -1.16,-0.72 -1.87,-0.65 -0.72,0.09 -1.56,0.4 -2.53,0.95l-2.18 1.18c-1.5,0.8 -2.9,1.41 -4.23,1.85 -1.32,0.45 -2.59,0.55 -3.8,0.31 -1.21,-0.23 -2.4,-0.9 -3.56,-2 -1.79,-1.71 -2.56,-3.74 -2.32,-6.09 0.24,-2.36 1.5,-4.74 3.8,-7.15 1.17,-1.23 2.32,-2.21 3.47,-2.94 1.15,-0.73 2.22,-1.15 3.2,-1.25 0.99,-0.11 1.81,0.15 2.48,0.79 0.49,0.47 0.81,0.99 0.95,1.55 0.14,0.56 0.17,1.14 0.1,1.73 -0.81,0.17 -1.73,0.54 -2.76,1.12 -1.02,0.58 -2.01,1.37 -2.95,2.36 -0.98,1.03 -1.56,1.96 -1.71,2.79 -0.16,0.84 0.03,1.51 0.56,2.02 0.43,0.41 0.95,0.57 1.54,0.49 0.6,-0.09 1.33,-0.38 2.2,-0.86l2.24 -1.25c2.47,-1.38 4.7,-2.12 6.71,-2.22 2,-0.1 3.84,0.64 5.52,2.24 1.8,1.72 2.6,3.82 2.4,6.29 -0.2,2.48 -1.56,5.04 -4.08,7.68 -1.25,1.31 -2.51,2.35 -3.77,3.11 -1.27,0.77 -2.46,1.2 -3.58,1.3 -1.12,0.1 -2.04,-0.18 -2.75,-0.86 -0.56,-0.53 -0.88,-1.16 -0.96,-1.87 -0.08,-0.71 -0.02,-1.36 0.18,-1.96 1.02,-0.13 2.14,-0.45 3.35,-0.96 1.2,-0.51 2.33,-1.31 3.37,-2.41z" class="fil2"></path>
  <path d="M367.29 122.24c19.72,29.43 30.26,64.07 30.26,99.5 0,36.73 -11.32,72.56 -32.41,102.63" class="fil0 str2"></path>
  <path d="M71.22 322.56c-20.29,-29.71 -31.14,-64.85 -31.14,-100.82 0,-35.46 10.55,-70.12 30.3,-99.57" class="fil0 str2"></path>
  <path d="M218.81 73.77c-79.97,0 -145.04,65.07 -145.04,145.05 0,79.97 65.07,145.04 145.04,145.04 79.98,0 145.04,-65.07 145.04,-145.04 0,-79.98 -65.06,-145.05 -145.04,-145.05z" class="fil3 str3"></path>
  <path d="M218.85 313.77l0 0.02c7.38,0 14.77,-0.04 22.15,0.04 1.31,0.01 1.61,-0.49 1.61,-1.6 -0.02,-2.83 -0.04,-5.66 0,-8.49 0.01,-1.15 -0.5,-1.45 -1.58,-1.42 -2.65,0.07 -5.3,0.03 -7.94,0.03 -12.13,0 -24.25,0.02 -36.38,-0.03 -1.37,0 -1.97,0.19 -1.85,1.82 0.19,2.38 0.05,4.79 -0.03,7.19 -0.08,2.38 -0.09,2.43 2.23,2.43 7.26,0.02 14.52,0.01 21.79,0.01zm51.08 -139.66c-1.47,0 -2.95,-0.07 -4.42,0.02 -1.84,0.1 -1.46,-1.17 -1.51,-2.23 -0.06,-1.17 0.08,-2.03 1.64,-1.95 2.81,0.13 5.63,0.1 8.45,0.17 2.1,0.05 1.04,1.66 1.21,2.61 0.15,0.89 0.02,1.71 -1.34,1.57 -1.33,-0.14 -2.69,-0.03 -4.03,-0.03 0,-0.05 0,-0.11 0,-0.16zm-16.86 16.12c0,1.41 -0.07,2.83 0.02,4.24 0.07,1.14 -0.5,1.49 -1.43,1.33 -1.01,-0.18 -2.68,0.66 -2.75,-1.22 -0.11,-3.01 -0.05,-6.03 0.1,-9.03 0.08,-1.67 1.53,-0.98 2.46,-1.07 0.92,-0.09 1.74,0.04 1.69,1.32 -0.04,1.48 -0.01,2.95 -0.01,4.43 -0.03,0 -0.05,0 -0.08,0zm17.27 -2.38c-0.3,0.67 -0.34,0.86 -0.45,0.99 -2.21,2.78 -2.3,2.77 -4.72,0.25 -2.9,-3.01 -5.81,-6.01 -8.74,-8.99 -1.6,-1.63 -1.63,-1.77 0.07,-3.3 0.45,-0.4 0.93,-0.75 1.02,-0.53 4.32,3.9 8.64,7.8 12.82,11.58zm-49.67 28.67l4.02 0c0,1.51 0.13,2.97 -0.09,4.39 -0.06,0.37 -1.2,0.82 -1.83,0.8 -0.7,-0.02 -1.93,-0.43 -2,-0.84 -0.25,-1.4 -0.1,-2.88 -0.1,-4.35zm12.51 9.11c0.74,0 1.52,0 2.31,0 2.45,0.01 3.21,1.01 2.45,3.35 -0.12,0.36 -0.62,0.64 -1,0.84 -0.24,0.12 -0.6,0 -0.91,0 -3.51,0.02 -3.96,-0.61 -2.85,-4.19zm-28.1 54.28c-0.7,1.09 -1.18,2.11 -1.95,2.84 -0.23,0.22 -1.3,-0.29 -1.9,-0.62 -11.35,-6.39 -18.96,-16.15 -24.76,-27.54 -0.56,-1.08 -0.48,-1.8 0.73,-2.04 1.04,-0.2 2.15,-1.86 3.17,0.24 5.24,10.79 12.41,19.87 23.05,25.85 0.55,0.31 1.02,0.77 1.66,1.27zm63.44 -62.74c-1.35,0.02 -2.69,1.29 -2.7,2.54 -0.01,1.46 1.23,2.71 2.68,2.69 1.56,-0.02 2.73,-1.19 2.65,-2.66 -0.07,-1.39 -1.3,-2.6 -2.63,-2.57zm-0.04 9.43c-3.8,-0.03 -6.75,-2.99 -6.75,-6.79 0.01,-3.76 3.03,-6.82 6.75,-6.83 3.76,-0.02 6.86,3.13 6.86,6.96 0,3.78 -3,6.69 -6.86,6.66zm-106.59 -10.82c-3.49,-0.04 -6.28,2.69 -6.27,6.13 0.02,3.13 2.73,5.82 5.92,5.88 3.56,0.06 6.15,-2.51 6.18,-6.13 0.02,-3.25 -2.56,-5.85 -5.83,-5.88zm-0.26 16.09c-5.63,0.04 -10.01,-4.32 -10.05,-10.02 -0.05,-5.7 4.37,-10.22 10.07,-10.28 5.52,-0.07 10.18,4.59 10.21,10.22 0.03,5.68 -4.39,10.04 -10.23,10.08zm61.87 -80.66c-3.53,-6.69 -6.92,-13.12 -10.3,-19.54 -4.16,2.19 -7.9,4.16 -11.65,6.15 -0.73,0.39 -1.67,0.65 -1,1.89 3.12,5.79 6.19,11.61 9.33,17.38 0.2,0.36 1.07,0.75 1.36,0.6 4.04,-2.07 8.03,-4.22 12.26,-6.48zm-8.7 -25.08c0.39,0.66 0.78,1.26 1.12,1.89 4.14,7.75 8.26,15.51 12.43,23.24 0.66,1.22 0.63,1.85 -0.75,2.55 -5.85,2.99 -11.65,6.09 -17.43,9.21 -1.09,0.58 -1.68,0.58 -2.31,-0.64 -4.07,-7.84 -8.17,-15.69 -12.37,-23.47 -0.85,-1.57 -0.65,-2.3 0.93,-3.11 6.06,-3.11 12.06,-6.33 18.38,-9.67zm-29.36 43.81c-0.2,-9.01 -7.2,-15.61 -16.35,-15.42 -8.46,0.17 -15.16,7.48 -14.95,16.28 0.21,8.33 7.57,15.18 16.1,14.97 8.57,-0.21 15.39,-7.32 15.2,-15.83zm-35.4 0.11c0.14,-11.17 8.9,-19.83 19.89,-19.64 11.4,0.19 19.84,8.98 19.67,20.48 -0.15,10.38 -9.31,19.19 -19.84,19.09 -11.06,-0.11 -19.85,-8.99 -19.72,-19.93zm29.46 27.36c-0.11,0.18 -0.21,0.37 -0.32,0.55 1.15,0.71 2.23,1.6 3.47,2.09 9.66,3.76 19.16,3.02 28.38,-1.44 2.18,-1.05 4.14,-2.64 5.99,-4.23 1.91,-1.64 2.9,-3.91 2.46,-6.45 -0.91,-5.39 -5.74,-8.05 -11.4,-4.55 -4.25,2.63 -7.97,6.13 -11.95,9.22 -4.52,3.51 -9.45,5.75 -15.37,4.82 -0.41,-0.07 -0.84,-0.01 -1.26,-0.01zm16 9.16c-4.93,-0.04 -10.72,-0.48 -15.98,-3.56 -2.6,-1.53 -4.79,-3.45 -6.19,-6.16 -0.7,-1.35 -1.17,-2.83 -0.01,-4.14 1.1,-1.23 2.57,-1.08 3.94,-0.52 6.21,2.52 11.61,1.03 16.63,-3.07 3.89,-3.19 7.82,-6.37 11.97,-9.22 3.48,-2.38 7.47,-2.72 11.46,-1.17 1.19,0.46 2.14,0.25 2.78,-0.66 1.32,-1.9 2.63,-3.82 3.66,-5.88 0.85,-1.7 1.14,-1.93 3.46,-1.19 1.57,0.49 0.84,1.48 0.59,2.36 -0.91,3.16 -2.65,5.78 -5.07,8 -0.4,0.37 -0.75,1.37 -0.54,1.75 3.08,5.36 1.29,11.96 -4.43,16.19 -6.35,4.7 -13.51,6.9 -22.27,7.27zm77.41 -49.1c-0.87,1.15 -1.44,2.13 -2.22,2.9 -2.69,2.7 -5.45,5.33 -8.2,7.98 -8.24,7.93 -16.47,15.87 -24.75,23.78 -0.91,0.87 -0.9,1.4 0.12,2.15 6.23,4.57 13.15,6.38 20.72,4.81 11.42,-2.38 19.19,-10.95 20.41,-22.56 0.71,-6.82 -1.17,-13 -6.08,-19.06zm0.68 -5.5c1.24,1.42 2.62,2.75 3.7,4.28 6.66,9.39 7.94,19.54 3.29,30.05 -4.5,10.14 -12.71,15.91 -23.64,17.21 -9.65,1.15 -18.08,-2.01 -24.93,-9.04 -0.69,-0.71 -1.39,-1.3 -0.24,-2.39 10.17,-9.69 20.27,-19.43 30.4,-29.16 3.73,-3.58 7.46,-7.16 11.42,-10.95zm20.83 80.93l0 0.01c-0.35,3 -0.54,5.73 -1.02,8.42 -4.1,22.95 -15.51,41.22 -35.06,54.15 -3.06,2.02 -6.4,3.67 -9.73,5.25 -1.44,0.69 -1.83,1.51 -1.81,2.96 0.07,4.13 -0.03,8.26 0.06,12.38 0.04,1.48 -0.42,1.85 -1.89,1.85 -17.36,-0.06 -34.73,-0.06 -52.1,0 -1.71,0 -2.19,-0.41 -2.12,-2.16 0.15,-4 0,-8.01 0.08,-12.01 0.03,-1.54 -0.44,-2.34 -1.94,-3.04 -19.66,-9.17 -33.07,-24.13 -40.77,-44.33 -2.78,-7.29 -4.15,-14.89 -4.92,-22.63 -0.01,-0.17 0.07,-0.35 0.14,-0.72 0.57,-0.03 1.17,-0.08 1.76,-0.08 17.18,0.01 34.36,0 51.54,0.07 1.7,0 2.19,-0.31 2,-2.14 -1.53,-14.28 8.37,-25.04 20.89,-26.98 12.45,-1.92 25.55,7.69 26.97,20.14 0.32,2.84 0.05,5.74 0.05,8.86l47.87 0zm-71.86 0.06c5.9,0 11.81,-0.03 17.71,0.03 1.49,0.01 2.37,-0.32 2.32,-2 -0.05,-1.89 0.16,-3.81 -0.04,-5.68 -1.05,-9.68 -10.28,-19.05 -23.22,-17.16 -10.52,1.53 -18.25,12.26 -16.53,22.97 0.24,1.49 0.78,1.89 2.23,1.88 5.84,-0.08 11.69,-0.04 17.53,-0.04zm-3.84 4.06l0 0.04c-9.36,0 -18.72,0 -28.08,0 -13.67,0 -27.34,0 -41.01,-0.02 -1.12,0 -1.96,0.02 -1.73,1.56 1.01,6.78 2.7,13.36 5.44,19.66 7.74,17.78 20.17,31.01 37.95,39 1.08,0.49 2.35,0.79 3.54,0.79 16.13,0.05 32.27,0.04 48.4,0.02 0.78,-0.01 1.61,-0.15 2.32,-0.46 2.29,-1.04 4.62,-2.05 6.79,-3.32 20.31,-11.85 32.26,-29.6 36.78,-52.53 1.09,-5.54 1.42,-4.69 -3.89,-4.71 -22.17,-0.08 -44.34,-0.03 -66.51,-0.03z" class="fil4 str4"></path>
 </g>
</svg>
