<svg xmlns:xlink="http://www.w3.org/1999/xlink" viewBox="0 0 190.9 190.9" style="shape-rendering:geometricPrecision; text-rendering:geometricPrecision; image-rendering:optimizeQuality; fill-rule:evenodd; clip-rule:evenodd" version="1.1" height="614px" width="614px" xml:space="preserve" xmlns="http://www.w3.org/2000/svg">
 <defs>
  <style type="text/css">
   
    .str0 {stroke:#F8D63A;stroke-width:2.49;stroke-miterlimit:2.61313}
    .str1 {stroke:#4F2A22;stroke-width:0.28;stroke-miterlimit:2.61313}
    .str2 {stroke:#FEFEFE;stroke-width:2.49;stroke-linecap:round;stroke-linejoin:round;stroke-miterlimit:2.61313}
    .fil0 {fill:none}
    .fil5 {fill:none;fill-rule:nonzero}
    .fil1 {fill:#4F2A22}
    .fil4 {fill:#4F2A22}
    .fil2 {fill:#FEFEFE;fill-rule:nonzero}
    .fil3 {fill:black;fill-rule:nonzero}
   
  </style>
    <clipPath style="clip-rule:nonzero" id="id0">
     <path d="M32.18 95.45c0,-34.89 28.38,-63.27 63.27,-63.27 34.89,0 63.27,28.38 63.27,63.27 0,34.89 -28.38,63.27 -63.27,63.27 -34.89,0 -63.27,-28.38 -63.27,-63.27z"></path>
    </clipPath>
 </defs>
 <g id="Layer_x0020_1">
  <metadata id="CorelCorpID_0Corel-Layer"></metadata>
  <circle r="94.21" cy="95.45" cx="95.45" class="fil0 str0"></circle>
  <g id="_2292424842592">
   <path d="M4.2 95.45c0,-25.17 10.23,-47.98 26.75,-64.5 16.52,-16.52 39.33,-26.75 64.5,-26.75 25.17,0 47.98,10.23 64.5,26.75 16.52,16.52 26.75,39.33 26.75,64.5 0,25.17 -10.23,47.98 -26.75,64.5 -16.52,16.52 -39.33,26.75 -64.5,26.75 -25.17,0 -47.98,-10.23 -64.5,-26.75 -16.52,-16.52 -26.75,-39.33 -26.75,-64.5zm27.98 0c0,-34.89 28.38,-63.27 63.27,-63.27 34.89,0 63.27,28.38 63.27,63.27 0,34.89 -28.38,63.27 -63.27,63.27 -34.89,0 -63.27,-28.38 -63.27,-63.27z" class="fil1"></path>
   <circle r="81.8" cy="96.73" cx="95.45" class="fil1 str1"></circle>
   <path d="M15.93 90.76c-0.05,0.68 0.03,1.18 0.26,1.5 0.22,0.32 0.5,0.49 0.85,0.51 0.31,0.03 0.58,-0.07 0.79,-0.29 0.22,-0.22 0.41,-0.55 0.58,-1l0.4 -0.98c0.28,-0.66 0.58,-1.25 0.9,-1.75 0.32,-0.51 0.71,-0.89 1.18,-1.14 0.46,-0.25 1.04,-0.35 1.72,-0.3 1.05,0.08 1.86,0.55 2.42,1.39 0.55,0.85 0.78,1.98 0.67,3.4 -0.05,0.72 -0.17,1.35 -0.35,1.91 -0.18,0.55 -0.42,0.98 -0.72,1.28 -0.3,0.3 -0.64,0.44 -1.03,0.41 -0.3,-0.02 -0.54,-0.11 -0.74,-0.26 -0.2,-0.15 -0.37,-0.33 -0.5,-0.54 0.22,-0.28 0.43,-0.65 0.61,-1.12 0.18,-0.47 0.29,-1 0.34,-1.58 0.04,-0.61 -0.02,-1.07 -0.19,-1.39 -0.18,-0.32 -0.42,-0.49 -0.74,-0.51 -0.25,-0.02 -0.46,0.06 -0.64,0.25 -0.17,0.19 -0.34,0.49 -0.49,0.88l-0.41 1.02c-0.44,1.13 -0.98,1.98 -1.61,2.55 -0.64,0.58 -1.45,0.83 -2.44,0.75 -1.06,-0.08 -1.9,-0.55 -2.5,-1.43 -0.6,-0.87 -0.84,-2.09 -0.72,-3.64 0.06,-0.78 0.19,-1.46 0.4,-2.05 0.21,-0.6 0.49,-1.07 0.83,-1.4 0.35,-0.34 0.73,-0.49 1.15,-0.46 0.33,0.02 0.6,0.14 0.82,0.36 0.22,0.21 0.38,0.44 0.47,0.69 -0.3,0.32 -0.59,0.73 -0.85,1.23 -0.26,0.49 -0.41,1.07 -0.46,1.71zm2.68 7.72l0.21 2.79 -2.03 0.15c-0.36,0.03 -0.61,0.16 -0.76,0.4 -0.14,0.25 -0.2,0.57 -0.17,0.99 0.02,0.19 0.05,0.4 0.12,0.61 0.06,0.22 0.12,0.41 0.2,0.55 -0.11,0.11 -0.24,0.22 -0.4,0.31 -0.16,0.09 -0.34,0.15 -0.56,0.17 -0.43,0.03 -0.8,-0.12 -1.1,-0.45 -0.31,-0.34 -0.49,-0.92 -0.56,-1.76 -0.08,-1.06 0.1,-1.91 0.54,-2.53 0.43,-0.63 1.2,-0.98 2.29,-1.06l2.22 -0.17zm1.86 1.65l2.17 -0.16 0.27 3.64c-0.09,0.07 -0.23,0.15 -0.42,0.23 -0.18,0.07 -0.39,0.12 -0.62,0.14 -0.38,0.03 -0.66,-0.04 -0.85,-0.19 -0.19,-0.16 -0.3,-0.39 -0.32,-0.68l-0.23 -2.98zm-2.13 1.18l-0.21 -2.8 6.82 -0.51c0.05,0.12 0.1,0.29 0.16,0.52 0.07,0.22 0.11,0.46 0.13,0.71 0.04,0.55 -0.03,0.95 -0.2,1.2 -0.17,0.26 -0.51,0.41 -1.02,0.44l-5.68 0.44zm-1.55 9.91c0.05,0.29 0.13,0.57 0.24,0.84 0.1,0.27 0.2,0.46 0.3,0.57l1.8 -0.32 -0.43 -1.55c-0.1,-0.42 -0.25,-0.74 -0.44,-0.96 -0.2,-0.22 -0.44,-0.31 -0.74,-0.26 -0.3,0.06 -0.52,0.22 -0.66,0.49 -0.14,0.27 -0.16,0.67 -0.07,1.19zm7.48 -1.45c0.23,1.3 0.15,2.39 -0.26,3.26 -0.41,0.87 -1.18,1.41 -2.31,1.61l-4.26 0.76c-0.31,0.06 -0.58,0.02 -0.8,-0.11 -0.23,-0.12 -0.43,-0.3 -0.61,-0.53 -0.29,-0.33 -0.55,-0.77 -0.78,-1.3 -0.24,-0.53 -0.41,-1.15 -0.54,-1.87 -0.23,-1.27 -0.16,-2.33 0.2,-3.18 0.37,-0.84 1.05,-1.35 2.03,-1.53 0.85,-0.15 1.55,-0.01 2.1,0.44 0.55,0.44 0.97,1.17 1.26,2.19l0.7 2.45 0.23 -0.04c0.42,-0.08 0.7,-0.3 0.83,-0.66 0.13,-0.37 0.14,-0.85 0.03,-1.47 -0.09,-0.47 -0.23,-0.93 -0.42,-1.36 -0.2,-0.44 -0.4,-0.83 -0.61,-1.16 0.07,-0.17 0.2,-0.33 0.39,-0.47 0.18,-0.14 0.39,-0.23 0.62,-0.27 0.52,-0.1 0.95,0.12 1.29,0.65 0.22,0.34 0.4,0.74 0.56,1.21 0.15,0.47 0.27,0.93 0.35,1.38zm0.88 15.94l-1.7 0.57 -0.91 -2.69 1.61 -0.54c0.45,-0.15 0.73,-0.39 0.85,-0.72 0.13,-0.33 0.12,-0.71 -0.03,-1.13 -0.1,-0.3 -0.23,-0.56 -0.39,-0.79 -0.17,-0.23 -0.34,-0.42 -0.52,-0.59l-2.5 0.85 -0.91 -2.67 2.82 -0.95c0.3,-0.11 0.57,-0.13 0.81,-0.07 0.24,0.06 0.48,0.18 0.72,0.37 0.39,0.3 0.78,0.72 1.16,1.26 0.37,0.54 0.69,1.17 0.93,1.89 0.44,1.3 0.49,2.4 0.16,3.31 -0.33,0.9 -1.03,1.53 -2.1,1.9zm-3.67 -7.99l0.91 2.67 -4.73 1.6c-0.08,-0.11 -0.17,-0.27 -0.27,-0.47 -0.11,-0.21 -0.2,-0.44 -0.28,-0.69 -0.18,-0.51 -0.21,-0.91 -0.11,-1.2 0.1,-0.3 0.39,-0.53 0.86,-0.69l3.62 -1.22zm1.89 5.59l0.91 2.69 -4.72 1.6c-0.08,-0.11 -0.17,-0.27 -0.27,-0.47 -0.11,-0.21 -0.2,-0.44 -0.29,-0.69 -0.17,-0.51 -0.2,-0.91 -0.1,-1.21 0.1,-0.3 0.38,-0.53 0.85,-0.69l3.62 -1.23zm2.47 11.98l5.1 -2.62 1.29 2.51 -5.43 2.78c-0.27,0.14 -0.52,0.2 -0.77,0.18 -0.24,-0.02 -0.5,-0.11 -0.78,-0.28 -0.36,-0.21 -0.74,-0.51 -1.14,-0.93 -0.41,-0.41 -0.77,-0.94 -1.1,-1.58 -0.48,-0.94 -0.74,-1.83 -0.78,-2.68 -0.03,-0.84 0.18,-1.61 0.63,-2.31 0.45,-0.69 1.15,-1.28 2.1,-1.77 0.99,-0.51 1.91,-0.74 2.74,-0.69 0.83,0.05 1.57,0.32 2.22,0.8 0.64,0.49 1.17,1.12 1.57,1.9 0.21,0.4 0.34,0.79 0.42,1.15 0.07,0.36 0.09,0.68 0.07,0.95l-2.06 1.06c0.05,-0.23 0.07,-0.51 0.05,-0.82 -0.02,-0.32 -0.12,-0.65 -0.29,-0.99 -0.21,-0.39 -0.47,-0.7 -0.8,-0.92 -0.32,-0.22 -0.7,-0.32 -1.14,-0.31 -0.44,0.01 -0.93,0.15 -1.47,0.43 -0.79,0.41 -1.28,0.88 -1.47,1.43 -0.19,0.55 -0.13,1.12 0.18,1.73 0.13,0.25 0.27,0.46 0.43,0.62 0.16,0.16 0.31,0.28 0.43,0.36zm5.9 0.14l-1.3 -2.5 4.42 -2.26c0.09,0.08 0.2,0.22 0.34,0.4 0.13,0.19 0.26,0.4 0.39,0.64 0.25,0.49 0.35,0.89 0.29,1.2 -0.06,0.3 -0.32,0.56 -0.77,0.8l-3.37 1.72zm-0.82 8.57c0.17,0.24 0.37,0.45 0.58,0.65 0.21,0.2 0.38,0.33 0.52,0.39l1.49 -1.06 -1.05 -1.21c-0.27,-0.34 -0.54,-0.57 -0.82,-0.69 -0.27,-0.11 -0.53,-0.09 -0.78,0.09 -0.24,0.18 -0.37,0.42 -0.38,0.72 -0.01,0.3 0.14,0.67 0.44,1.11zm6.15 -4.51c0.76,1.08 1.15,2.09 1.15,3.06 0.01,0.96 -0.46,1.77 -1.4,2.44l-3.52 2.51c-0.26,0.18 -0.52,0.26 -0.77,0.24 -0.26,-0.02 -0.52,-0.09 -0.78,-0.22 -0.41,-0.17 -0.83,-0.45 -1.26,-0.84 -0.44,-0.38 -0.87,-0.87 -1.29,-1.46 -0.75,-1.05 -1.14,-2.04 -1.17,-2.96 -0.03,-0.92 0.36,-1.67 1.18,-2.25 0.7,-0.5 1.4,-0.67 2.08,-0.51 0.69,0.17 1.38,0.65 2.07,1.45l1.69 1.91 0.19 -0.13c0.35,-0.25 0.5,-0.57 0.47,-0.95 -0.05,-0.39 -0.25,-0.83 -0.61,-1.34 -0.28,-0.39 -0.6,-0.74 -0.96,-1.06 -0.36,-0.31 -0.71,-0.57 -1.05,-0.78 0,-0.18 0.05,-0.38 0.16,-0.59 0.11,-0.21 0.25,-0.38 0.44,-0.51 0.43,-0.31 0.92,-0.3 1.45,0.04 0.34,0.21 0.68,0.5 1.02,0.85 0.34,0.36 0.64,0.73 0.91,1.1zm4.16 9.19l-1.73 1.65 -1.94 -2.04 1.97 -1.88c0.26,-0.25 0.54,-0.4 0.83,-0.44 0.3,-0.05 0.62,-0.03 0.97,0.06 0.47,0.13 0.97,0.36 1.48,0.68 0.51,0.33 0.99,0.73 1.44,1.2 0.89,0.93 1.03,1.7 0.4,2.3 -0.14,0.14 -0.3,0.25 -0.47,0.33 -0.17,0.08 -0.32,0.14 -0.47,0.17 -0.07,-0.11 -0.16,-0.24 -0.27,-0.38 -0.12,-0.15 -0.25,-0.3 -0.4,-0.46 -0.26,-0.27 -0.55,-0.52 -0.88,-0.73 -0.33,-0.22 -0.64,-0.37 -0.93,-0.46zm-3.15 -0.89l1.91 2.08 -3.59 3.41c-0.11,-0.06 -0.26,-0.17 -0.44,-0.31 -0.18,-0.14 -0.36,-0.31 -0.55,-0.51 -0.37,-0.38 -0.57,-0.73 -0.6,-1.04 -0.03,-0.31 0.13,-0.64 0.49,-0.98l2.78 -2.65zm8.64 11.78l3.55 -4.51 2.21 1.75 -3.76 4.79c-0.19,0.24 -0.4,0.4 -0.63,0.49 -0.23,0.08 -0.5,0.11 -0.82,0.06 -0.42,-0.03 -0.89,-0.15 -1.43,-0.36 -0.54,-0.2 -1.1,-0.53 -1.67,-0.98 -0.82,-0.65 -1.43,-1.35 -1.81,-2.1 -0.39,-0.76 -0.52,-1.54 -0.4,-2.36 0.12,-0.82 0.5,-1.65 1.16,-2.49 0.69,-0.88 1.43,-1.47 2.21,-1.77 0.77,-0.3 1.56,-0.37 2.35,-0.2 0.78,0.17 1.52,0.52 2.21,1.06 0.36,0.28 0.65,0.58 0.87,0.87 0.21,0.3 0.37,0.58 0.46,0.83l-1.43 1.83c-0.05,-0.23 -0.15,-0.49 -0.3,-0.77 -0.15,-0.28 -0.38,-0.53 -0.68,-0.77 -0.34,-0.27 -0.71,-0.44 -1.1,-0.51 -0.39,-0.06 -0.78,0.01 -1.17,0.2 -0.39,0.19 -0.78,0.53 -1.16,1.01 -0.54,0.69 -0.79,1.33 -0.74,1.91 0.06,0.58 0.36,1.08 0.9,1.5 0.22,0.17 0.43,0.3 0.65,0.38 0.21,0.07 0.39,0.12 0.53,0.14zm5.42 -2.33l-2.23 -1.73 3.08 -3.91c0.11,0.05 0.27,0.12 0.47,0.23 0.2,0.11 0.41,0.25 0.62,0.42 0.44,0.34 0.7,0.66 0.77,0.96 0.07,0.3 -0.05,0.65 -0.37,1.05l-2.34 2.98zm6.27 9.46c-0.47,0.81 -1.13,1.26 -2,1.37 -0.87,0.11 -1.88,-0.17 -3.04,-0.83 -0.9,-0.52 -1.56,-1.08 -2,-1.68 -0.43,-0.6 -0.5,-1.16 -0.2,-1.67 0.14,-0.24 0.3,-0.41 0.5,-0.52 0.19,-0.12 0.4,-0.18 0.61,-0.19 0.21,0.36 0.47,0.73 0.8,1.11 0.33,0.39 0.76,0.73 1.28,1.04 0.81,0.46 1.34,0.46 1.61,0 0.11,-0.2 0.13,-0.4 0.05,-0.6 -0.07,-0.2 -0.26,-0.42 -0.56,-0.66l-0.6 -0.57c-0.77,-0.69 -1.26,-1.36 -1.47,-2 -0.21,-0.64 -0.12,-1.3 0.27,-1.98 0.45,-0.77 1.11,-1.21 1.99,-1.31 0.89,-0.1 1.86,0.16 2.92,0.76 0.52,0.31 0.98,0.64 1.35,0.99 0.38,0.36 0.63,0.71 0.76,1.07 0.13,0.37 0.1,0.7 -0.08,1.02 -0.13,0.22 -0.29,0.39 -0.47,0.51 -0.18,0.11 -0.38,0.18 -0.58,0.21 -0.08,-0.15 -0.22,-0.34 -0.41,-0.57 -0.2,-0.23 -0.43,-0.45 -0.69,-0.68 -0.26,-0.22 -0.52,-0.4 -0.77,-0.55 -0.39,-0.23 -0.73,-0.35 -1.01,-0.37 -0.28,-0.03 -0.49,0.07 -0.61,0.29 -0.09,0.15 -0.09,0.31 -0.03,0.48 0.07,0.18 0.24,0.4 0.52,0.64l0.57 0.55c0.85,0.78 1.38,1.5 1.57,2.16 0.19,0.66 0.1,1.32 -0.28,1.98zm12.61 -1.53l-0.11 -0.04c-0.25,0.35 -0.53,0.73 -0.86,1.14 -0.32,0.41 -0.65,0.85 -0.99,1.3 -0.34,0.46 -0.68,0.91 -1,1.36l-0.88 1.52c-0.15,0.2 -0.3,0.42 -0.45,0.65 -0.15,0.23 -0.3,0.45 -0.46,0.67 -0.15,0.21 -0.29,0.42 -0.43,0.61 -0.13,0.2 -0.26,0.39 -0.38,0.56 -0.15,-0.01 -0.31,-0.02 -0.5,-0.04 -0.18,-0.01 -0.38,-0.06 -0.61,-0.14 -0.51,-0.17 -0.86,-0.39 -1.07,-0.66 -0.2,-0.27 -0.24,-0.58 -0.12,-0.93 0.05,-0.14 0.12,-0.28 0.21,-0.43 0.1,-0.14 0.21,-0.3 0.34,-0.48 0.24,-0.37 0.56,-0.81 0.97,-1.35 0.4,-0.53 0.84,-1.11 1.31,-1.73 0.47,-0.63 0.95,-1.24 1.42,-1.84 0.48,-0.61 0.93,-1.16 1.33,-1.67 0.41,-0.5 0.73,-0.9 0.97,-1.18 0.21,-0.05 0.51,-0.06 0.91,-0.02 0.39,0.03 0.77,0.11 1.13,0.23 0.52,0.18 0.96,0.41 1.32,0.7 0.36,0.29 0.53,0.61 0.53,0.97 0.01,0.72 0.01,1.54 0,2.47 -0.01,0.92 -0.03,1.89 -0.06,2.9 -0.04,1.01 -0.07,1.99 -0.1,2.93 -0.04,0.95 -0.07,1.8 -0.11,2.55 -0.18,0.1 -0.42,0.16 -0.7,0.17 -0.29,0.02 -0.61,-0.03 -0.96,-0.15 -0.49,-0.16 -0.81,-0.37 -0.95,-0.62 -0.15,-0.25 -0.21,-0.58 -0.2,-0.97l0.11 -2.22 0.21 -1.64c0.04,-0.59 0.07,-1.16 0.08,-1.72 0.02,-0.56 0.03,-1.08 0.06,-1.58 0.02,-0.5 0.03,-0.94 0.04,-1.32zm-5.16 5.19l1.79 -1.77 4.22 1.43 -0.36 2.25 -5.65 -1.91zm10.81 2.48l0.24 -1.35 2.77 0.5 -0.24 1.33c-0.1,0.57 -0.02,1.01 0.22,1.32 0.25,0.3 0.65,0.5 1.18,0.59 0.34,0.06 0.63,0.08 0.86,0.06 0.24,-0.02 0.42,-0.05 0.54,-0.1l0.48 -2.66 2.79 0.5 -0.53 3c-0.06,0.3 -0.16,0.55 -0.32,0.74 -0.15,0.19 -0.38,0.34 -0.67,0.46 -0.44,0.18 -0.97,0.29 -1.58,0.33 -0.6,0.04 -1.26,-0.01 -1.98,-0.14 -0.88,-0.15 -1.64,-0.42 -2.26,-0.81 -0.62,-0.38 -1.07,-0.88 -1.34,-1.5 -0.27,-0.62 -0.32,-1.38 -0.16,-2.27zm8.69 1.03l-2.79 -0.5 0.88 -4.95c0.13,-0.01 0.32,-0.02 0.55,-0.01 0.23,0 0.48,0.02 0.74,0.07 0.54,0.1 0.91,0.26 1.12,0.48 0.21,0.23 0.27,0.59 0.18,1.11l-0.68 3.8zm-5.83 -1.04l-2.77 -0.49 0.88 -4.95c0.12,-0.02 0.3,-0.03 0.53,-0.03 0.23,0.01 0.48,0.03 0.74,0.08 0.54,0.1 0.91,0.26 1.12,0.48 0.21,0.23 0.27,0.59 0.18,1.11l-0.68 3.8zm9.27 0.37l2.79 0.21 -0.16 2.03c-0.02,0.36 0.07,0.63 0.29,0.81 0.21,0.18 0.53,0.29 0.95,0.32 0.19,0.01 0.39,0.01 0.62,-0.02 0.22,-0.03 0.41,-0.07 0.57,-0.12 0.09,0.12 0.17,0.27 0.24,0.44 0.07,0.17 0.1,0.36 0.08,0.58 -0.03,0.43 -0.23,0.77 -0.61,1.02 -0.37,0.25 -0.98,0.35 -1.81,0.28 -1.07,-0.08 -1.88,-0.38 -2.43,-0.91 -0.55,-0.52 -0.79,-1.33 -0.7,-2.42l0.17 -2.22zm1.91 -1.59l0.17 -2.17 3.64 0.28c0.06,0.1 0.11,0.25 0.16,0.45 0.05,0.19 0.07,0.4 0.05,0.63 -0.03,0.38 -0.14,0.65 -0.32,0.82 -0.19,0.16 -0.42,0.23 -0.72,0.21l-2.98 -0.22zm0.84 2.28l-2.79 -0.22 0.52 -6.82c0.13,-0.02 0.31,-0.05 0.54,-0.08 0.23,-0.03 0.47,-0.03 0.73,-0.01 0.54,0.04 0.93,0.17 1.15,0.37 0.23,0.21 0.32,0.57 0.28,1.08l-0.43 5.68zm14.32 0.17l-2.83 0.21 -0.13 -1.69c-0.04,-0.58 -0.22,-0.98 -0.54,-1.21 -0.32,-0.22 -0.7,-0.32 -1.16,-0.28 -0.4,0.03 -0.76,0.13 -1.07,0.31 -0.31,0.18 -0.58,0.37 -0.79,0.57l-0.25 -2.27c0.28,-0.19 0.63,-0.37 1.05,-0.55 0.42,-0.17 0.89,-0.28 1.41,-0.32 1.2,-0.09 2.17,0.14 2.91,0.7 0.75,0.56 1.17,1.46 1.26,2.69l0.14 1.84zm-8.8 -0.48l2.81 -0.21 0.38 4.99c-0.13,0.05 -0.3,0.1 -0.53,0.15 -0.22,0.05 -0.47,0.08 -0.74,0.1 -0.53,0.04 -0.92,-0.02 -1.18,-0.2 -0.27,-0.17 -0.42,-0.5 -0.45,-0.99l-0.29 -3.84zm5.88 -0.45l2.83 -0.21 0.38 4.99c-0.12,0.05 -0.3,0.1 -0.52,0.15 -0.23,0.05 -0.47,0.08 -0.74,0.1 -0.54,0.04 -0.95,-0.02 -1.21,-0.19 -0.26,-0.17 -0.41,-0.51 -0.45,-1l-0.29 -3.84zm-2.96 1.7l-2.81 0.21 -0.67 -8.81c0.11,-0.05 0.28,-0.1 0.5,-0.15 0.23,-0.06 0.47,-0.1 0.74,-0.12 0.54,-0.04 0.94,0.03 1.21,0.2 0.26,0.17 0.41,0.51 0.45,1.02l0.58 7.65zm17.89 -4.02c0.22,0.96 0.22,1.85 0,2.65 -0.23,0.8 -0.65,1.47 -1.27,2.02 -0.61,0.55 -1.4,0.93 -2.35,1.15 -0.94,0.22 -1.81,0.22 -2.61,0 -0.8,-0.21 -1.47,-0.63 -2.03,-1.25 -0.55,-0.62 -0.94,-1.42 -1.17,-2.4 -0.22,-0.97 -0.22,-1.86 0.02,-2.65 0.23,-0.79 0.66,-1.46 1.28,-2.01 0.62,-0.56 1.4,-0.94 2.32,-1.16 0.94,-0.21 1.81,-0.21 2.61,0.02 0.79,0.23 1.47,0.65 2.03,1.27 0.56,0.62 0.95,1.41 1.17,2.36zm-5.3 -1.48c-0.59,0.14 -1,0.47 -1.23,0.99 -0.24,0.53 -0.27,1.2 -0.08,2.01 0.19,0.83 0.51,1.43 0.94,1.79 0.44,0.36 0.95,0.47 1.55,0.34 0.59,-0.14 1,-0.47 1.24,-0.99 0.23,-0.52 0.25,-1.19 0.06,-2.01 -0.19,-0.81 -0.5,-1.39 -0.94,-1.77 -0.43,-0.37 -0.95,-0.49 -1.54,-0.36zm9.67 -2.42l0.87 2.21 -2.62 1.04 -1 -2.54c-0.13,-0.33 -0.16,-0.64 -0.09,-0.93 0.06,-0.3 0.21,-0.59 0.42,-0.88 0.3,-0.39 0.69,-0.76 1.19,-1.11 0.49,-0.35 1.04,-0.65 1.65,-0.89 1.2,-0.47 1.96,-0.31 2.28,0.5 0.07,0.19 0.12,0.37 0.13,0.56 0.01,0.19 0,0.35 -0.02,0.5 -0.13,0.02 -0.28,0.06 -0.46,0.11 -0.18,0.05 -0.37,0.11 -0.57,0.19 -0.35,0.14 -0.69,0.32 -1.01,0.54 -0.32,0.23 -0.58,0.46 -0.77,0.7zm-2.02 2.57l2.65 -0.98 1.81 4.61c-0.1,0.08 -0.26,0.18 -0.46,0.29 -0.2,0.12 -0.42,0.22 -0.67,0.32 -0.5,0.19 -0.89,0.25 -1.19,0.16 -0.31,-0.08 -0.55,-0.36 -0.73,-0.82l-1.41 -3.58zm4.95 -9.3c-0.19,-0.39 -0.23,-0.78 -0.09,-1.17 0.13,-0.4 0.4,-0.7 0.8,-0.91 0.42,-0.21 0.83,-0.26 1.22,-0.13 0.39,0.13 0.69,0.38 0.89,0.77 0.19,0.37 0.22,0.76 0.1,1.16 -0.12,0.41 -0.39,0.72 -0.81,0.93 -0.4,0.21 -0.81,0.25 -1.21,0.11 -0.41,-0.13 -0.71,-0.39 -0.9,-0.76zm3.23 5.92l2.51 -1.28 2.28 4.45c-0.08,0.09 -0.22,0.2 -0.41,0.33 -0.19,0.14 -0.4,0.26 -0.64,0.38 -0.49,0.25 -0.88,0.35 -1.19,0.29 -0.31,-0.05 -0.57,-0.3 -0.8,-0.74l-1.75 -3.43zm3.18 0.02l-2.51 1.29 -2.5 -4.87c0.09,-0.09 0.23,-0.2 0.42,-0.34 0.19,-0.14 0.41,-0.27 0.64,-0.39 0.49,-0.25 0.88,-0.35 1.18,-0.3 0.3,0.06 0.57,0.32 0.8,0.78l1.97 3.83zm2.33 -2.87l2.36 -1.51 1.1 1.71c0.19,0.3 0.43,0.46 0.71,0.47 0.28,0.02 0.6,-0.09 0.95,-0.31 0.16,-0.1 0.32,-0.23 0.49,-0.39 0.16,-0.16 0.29,-0.31 0.38,-0.44 0.15,0.04 0.3,0.11 0.46,0.2 0.16,0.1 0.3,0.23 0.41,0.42 0.24,0.36 0.28,0.75 0.13,1.18 -0.15,0.43 -0.58,0.87 -1.28,1.32 -0.9,0.58 -1.73,0.82 -2.48,0.73 -0.76,-0.08 -1.44,-0.59 -2.02,-1.51l-1.21 -1.87zm0.57 -2.43l-1.17 -1.83 3.08 -1.97c0.11,0.05 0.24,0.14 0.4,0.27 0.15,0.12 0.29,0.28 0.42,0.47 0.2,0.32 0.28,0.61 0.23,0.85 -0.05,0.24 -0.19,0.44 -0.44,0.6l-2.52 1.61zm2.05 1.32l-2.36 1.51 -3.69 -5.76c0.08,-0.1 0.21,-0.23 0.38,-0.39 0.17,-0.16 0.36,-0.31 0.57,-0.45 0.46,-0.29 0.85,-0.42 1.15,-0.39 0.31,0.03 0.6,0.25 0.87,0.68l3.08 4.8zm7.4 -2.38c-0.42,-0.21 -0.91,-0.47 -1.46,-0.79 -0.55,-0.33 -1.18,-0.73 -1.88,-1.21 -0.71,-0.49 -1.5,-1.06 -2.39,-1.71 0.03,-0.24 0.11,-0.48 0.24,-0.74 0.13,-0.25 0.31,-0.47 0.55,-0.66 0.31,-0.24 0.62,-0.38 0.92,-0.41 0.3,-0.02 0.64,0.1 1.02,0.38 0.81,0.55 1.61,1.1 2.4,1.63 0.79,0.54 1.6,1.08 2.41,1.62l0.06 -0.04c-0.18,-0.59 -0.41,-1.23 -0.68,-1.94 -0.28,-0.7 -0.57,-1.42 -0.9,-2.14 -0.32,-0.72 -0.65,-1.4 -0.98,-2.05 0.08,-0.18 0.19,-0.36 0.31,-0.53 0.13,-0.17 0.27,-0.32 0.44,-0.45 0.31,-0.24 0.63,-0.39 0.96,-0.43 0.34,-0.04 0.63,0.1 0.88,0.42 0.22,0.28 0.44,0.65 0.68,1.13 0.24,0.48 0.47,1.01 0.71,1.59 0.23,0.59 0.44,1.2 0.64,1.84 0.2,0.65 0.38,1.28 0.54,1.9 0.15,0.62 0.27,1.19 0.35,1.73 0.2,1.36 0.25,2.45 0.16,3.27 -0.09,0.83 -0.36,1.41 -0.8,1.77 -0.36,0.28 -0.75,0.4 -1.15,0.37 -0.41,-0.04 -0.77,-0.21 -1.09,-0.51 0.08,-0.35 0.14,-0.73 0.19,-1.15 0.04,-0.41 0.06,-0.84 0.07,-1.26 0,-0.43 -0.02,-0.84 -0.07,-1.23 -0.21,0.09 -0.47,0.11 -0.78,0.09 -0.31,-0.03 -0.76,-0.2 -1.35,-0.49zm14.05 -17.65c0.78,0.61 1.33,1.3 1.66,2.07 0.32,0.76 0.42,1.55 0.28,2.37 -0.14,0.81 -0.51,1.6 -1.11,2.37 -0.6,0.76 -1.28,1.3 -2.03,1.64 -0.76,0.33 -1.55,0.43 -2.37,0.29 -0.82,-0.13 -1.62,-0.51 -2.41,-1.13 -0.79,-0.62 -1.34,-1.31 -1.65,-2.07 -0.32,-0.77 -0.41,-1.56 -0.27,-2.38 0.14,-0.82 0.5,-1.61 1.09,-2.36 0.6,-0.75 1.27,-1.29 2.04,-1.62 0.76,-0.32 1.55,-0.41 2.38,-0.28 0.82,0.13 1.62,0.5 2.39,1.1zm-5.06 2.18c-0.37,0.47 -0.48,0.98 -0.34,1.54 0.15,0.56 0.55,1.1 1.21,1.61 0.67,0.53 1.28,0.8 1.85,0.81 0.57,0.01 1.04,-0.23 1.41,-0.71 0.38,-0.48 0.5,-0.99 0.35,-1.55 -0.15,-0.55 -0.55,-1.08 -1.21,-1.6 -0.65,-0.51 -1.26,-0.77 -1.84,-0.79 -0.58,-0.02 -1.05,0.21 -1.43,0.69zm6.46 -7.44l-1.82 -1.17 2 -3.13c0.12,0 0.28,0.03 0.47,0.08 0.2,0.05 0.39,0.14 0.58,0.26 0.33,0.21 0.53,0.44 0.58,0.67 0.05,0.24 -0.01,0.49 -0.17,0.74l-1.64 2.55zm-2.23 -1.95l2.18 1.4 -1.45 2.26 -2.26 -1.45c-0.7,-0.45 -1.18,-0.97 -1.43,-1.54 -0.25,-0.58 -0.31,-1.19 -0.19,-1.84 0.12,-0.65 0.39,-1.29 0.79,-1.93 0.48,-0.74 0.94,-1.24 1.37,-1.48 0.44,-0.24 0.87,-0.22 1.31,0.06 0.19,0.12 0.34,0.27 0.44,0.45 0.1,0.17 0.16,0.34 0.18,0.49 -0.19,0.16 -0.39,0.34 -0.58,0.55 -0.19,0.21 -0.38,0.46 -0.57,0.75 -0.32,0.5 -0.47,0.94 -0.46,1.31 0.02,0.37 0.24,0.7 0.67,0.97zm0.27 3.36l1.52 -2.37 6.04 3.87c-0.03,0.13 -0.1,0.3 -0.2,0.51 -0.09,0.21 -0.21,0.43 -0.36,0.65 -0.28,0.45 -0.57,0.73 -0.87,0.83 -0.29,0.11 -0.65,0.03 -1.06,-0.24l-5.07 -3.25zm5.31 -11.36l1.19 -2.64 7.33 3.31c-0.02,0.12 -0.06,0.3 -0.14,0.55 -0.07,0.24 -0.16,0.49 -0.27,0.73 -0.24,0.52 -0.5,0.85 -0.78,0.98 -0.28,0.13 -0.65,0.09 -1.12,-0.12l-6.21 -2.81zm4.52 -1.13l-1.19 2.64 -6.54 -2.96c0.03,-0.13 0.08,-0.32 0.15,-0.57 0.07,-0.25 0.16,-0.5 0.27,-0.73 0.22,-0.49 0.47,-0.81 0.74,-0.96 0.28,-0.14 0.66,-0.1 1.14,0.12l5.43 2.46zm2.22 -11.98l1.72 0.49 -0.77 2.73 -1.63 -0.46c-0.45,-0.13 -0.82,-0.1 -1.11,0.11 -0.29,0.2 -0.49,0.51 -0.62,0.94 -0.08,0.31 -0.12,0.6 -0.12,0.88 0.01,0.28 0.04,0.54 0.09,0.77l2.55 0.73 -0.77 2.71 -2.86 -0.81c-0.31,-0.09 -0.54,-0.22 -0.71,-0.41 -0.16,-0.19 -0.29,-0.42 -0.38,-0.71 -0.16,-0.47 -0.24,-1.03 -0.24,-1.69 -0.01,-0.67 0.1,-1.36 0.3,-2.1 0.38,-1.32 0.96,-2.25 1.74,-2.81 0.79,-0.55 1.73,-0.68 2.81,-0.37zm-1.51 8.66l0.77 -2.71 4.8 1.36c0.01,0.13 -0.01,0.31 -0.04,0.54 -0.03,0.23 -0.09,0.47 -0.16,0.73 -0.14,0.51 -0.34,0.86 -0.59,1.05 -0.25,0.19 -0.62,0.21 -1.09,0.08l-3.69 -1.05zm1.62 -5.68l0.77 -2.73 4.8 1.36c0,0.14 -0.01,0.32 -0.04,0.55 -0.03,0.22 -0.09,0.47 -0.16,0.72 -0.15,0.52 -0.34,0.87 -0.6,1.06 -0.25,0.19 -0.61,0.22 -1.09,0.09l-3.68 -1.05zm4.9 -11.22l-5.69 -0.73 0.36 -2.79 6.04 0.76c0.31,0.04 0.55,0.14 0.75,0.29 0.19,0.15 0.35,0.38 0.48,0.68 0.18,0.36 0.32,0.83 0.42,1.4 0.1,0.57 0.11,1.22 0.02,1.94 -0.14,1.04 -0.43,1.92 -0.88,2.64 -0.45,0.72 -1.05,1.23 -1.82,1.55 -0.76,0.32 -1.67,0.42 -2.73,0.28 -1.11,-0.14 -1.99,-0.47 -2.65,-0.98 -0.66,-0.51 -1.12,-1.15 -1.38,-1.91 -0.26,-0.77 -0.34,-1.58 -0.23,-2.45 0.06,-0.45 0.16,-0.85 0.31,-1.19 0.14,-0.34 0.3,-0.61 0.47,-0.82l2.3 0.29c-0.17,0.16 -0.34,0.37 -0.5,0.64 -0.16,0.28 -0.27,0.6 -0.32,0.98 -0.05,0.44 -0.01,0.85 0.14,1.21 0.14,0.36 0.4,0.67 0.77,0.9 0.36,0.24 0.85,0.4 1.45,0.48 0.88,0.11 1.56,-0.01 2.02,-0.35 0.47,-0.34 0.75,-0.86 0.83,-1.54 0.04,-0.27 0.03,-0.52 -0.01,-0.75 -0.04,-0.22 -0.09,-0.4 -0.15,-0.53zm-4.78 -3.45l-0.34 2.79 -4.93 -0.62c-0.03,-0.12 -0.04,-0.3 -0.05,-0.53 -0.01,-0.23 0,-0.48 0.04,-0.74 0.07,-0.56 0.21,-0.94 0.43,-1.16 0.22,-0.21 0.58,-0.29 1.09,-0.22l3.76 0.48zm-4.29 -3.09c-0.43,-0.01 -0.79,-0.17 -1.07,-0.47 -0.29,-0.31 -0.42,-0.69 -0.41,-1.15 0.01,-0.47 0.17,-0.84 0.47,-1.13 0.3,-0.28 0.66,-0.42 1.09,-0.41 0.42,0.01 0.78,0.17 1.08,0.47 0.29,0.29 0.44,0.68 0.43,1.15 -0.02,0.46 -0.18,0.83 -0.49,1.12 -0.31,0.29 -0.68,0.43 -1.1,0.42zm6.75 0l0.07 -2.82 5.01 0.13c0.03,0.11 0.06,0.29 0.09,0.52 0.02,0.22 0.03,0.47 0.03,0.74 -0.02,0.54 -0.12,0.94 -0.32,1.18 -0.2,0.24 -0.54,0.36 -1.04,0.35l-3.84 -0.1zm1.54 -2.78l-0.08 2.82 -5.46 -0.14c-0.04,-0.12 -0.07,-0.29 -0.1,-0.53 -0.03,-0.23 -0.05,-0.48 -0.04,-0.75 0.01,-0.55 0.12,-0.94 0.31,-1.17 0.19,-0.24 0.54,-0.35 1.06,-0.34l4.31 0.11zm1.35 -7.37c-0.03,-0.29 -0.08,-0.58 -0.16,-0.86 -0.07,-0.28 -0.16,-0.48 -0.24,-0.6l-1.82 0.14 0.27 1.58c0.06,0.43 0.17,0.77 0.34,1.01 0.17,0.24 0.41,0.35 0.71,0.33 0.31,-0.03 0.54,-0.17 0.71,-0.42 0.16,-0.25 0.23,-0.65 0.19,-1.18zm-7.59 0.69c-0.1,-1.31 0.09,-2.39 0.58,-3.21 0.5,-0.83 1.32,-1.29 2.47,-1.38l4.31 -0.32c0.32,-0.03 0.58,0.04 0.79,0.19 0.21,0.15 0.39,0.34 0.55,0.58 0.26,0.37 0.47,0.82 0.65,1.38 0.17,0.55 0.29,1.19 0.34,1.91 0.1,1.29 -0.07,2.34 -0.52,3.14 -0.45,0.81 -1.17,1.25 -2.17,1.32 -0.86,0.07 -1.55,-0.15 -2.05,-0.64 -0.5,-0.5 -0.84,-1.27 -1.02,-2.31l-0.46 -2.51 -0.23 0.02c-0.43,0.03 -0.73,0.22 -0.89,0.57 -0.17,0.35 -0.23,0.84 -0.18,1.46 0.04,0.48 0.13,0.95 0.28,1.4 0.15,0.46 0.31,0.86 0.49,1.22 -0.09,0.15 -0.23,0.3 -0.43,0.42 -0.2,0.12 -0.42,0.19 -0.65,0.21 -0.53,0.04 -0.94,-0.22 -1.22,-0.78 -0.18,-0.36 -0.32,-0.78 -0.43,-1.26 -0.11,-0.48 -0.18,-0.95 -0.21,-1.41z" class="fil2"></path>
   <path d="M32.18 95.45c0,-34.89 28.38,-63.27 63.27,-63.27 34.89,0 63.27,28.38 63.27,63.27 0,34.89 -28.38,63.27 -63.27,63.27 -34.89,0 -63.27,-28.38 -63.27,-63.27z" class="fil2"></path>
   <g style="clip-path:url(#id0)">
    <g>
     <polygon points="56.22,97.82 61.53,97.82 61.53,86.57 68.76,86.57 68.76,82.21 61.53,82.21 61.53,75.78 69.19,75.78 69.19,71.82 56.22,71.82" class="fil3" id="_1"></polygon>
     <path d="M86.91 79.97c-0.03,-1.59 0.43,-5.74 -2.57,-7.56 -2.47,-1.48 -7.29,-1.28 -9.67,0.07 -2.67,1.52 -3.33,4.09 -3.43,6.3 -0.06,4.06 2.44,5.61 5.28,7.29l1.88 1.12c1.95,1.19 3.17,1.78 3.17,3.86 0,1.12 -0.23,2.11 -1.32,2.71 -0.82,0.46 -2.18,0.39 -2.8,0 -1.39,-0.83 -1.22,-3.3 -1.22,-4.32l-5.35 0c0,1.61 -0.2,5.9 2.54,7.55 2.48,1.52 7.95,1.39 10.36,0.03 2.9,-1.55 3.4,-4.22 3.43,-6.4 0.07,-3.82 -1.22,-5.11 -5.18,-7.42l-2.01 -1.15c-1.75,-1.03 -3.17,-1.95 -3.2,-3.83 -0.03,-1.02 0.2,-1.98 1.15,-2.57 0.63,-0.4 1.65,-0.37 2.38,0 1.35,0.69 1.15,3.16 1.15,4.32l5.41 0z" class="fil3" id="_2"></path>
     <path d="M105.83 79.97c-0.03,-1.59 0.43,-5.74 -2.58,-7.56 -2.47,-1.48 -7.29,-1.28 -9.66,0.07 -2.67,1.52 -3.33,4.09 -3.43,6.3 -0.07,4.06 2.44,5.61 5.28,7.29l1.88 1.12c1.94,1.19 3.16,1.78 3.16,3.86 0,1.12 -0.23,2.11 -1.32,2.71 -0.82,0.46 -2.17,0.39 -2.8,0 -1.39,-0.83 -1.22,-3.3 -1.22,-4.32l-5.35 0c0,1.61 -0.19,5.9 2.54,7.55 2.48,1.52 7.96,1.39 10.36,0.03 2.91,-1.55 3.4,-4.22 3.44,-6.4 0.06,-3.82 -1.23,-5.11 -5.18,-7.42l-2.02 -1.15c-1.75,-1.03 -3.16,-1.95 -3.2,-3.83 -0.03,-1.02 0.2,-1.98 1.16,-2.57 0.62,-0.4 1.65,-0.37 2.37,0 1.36,0.69 1.16,3.16 1.16,4.32l5.41 0z" class="fil3" id="_3"></path>
     <path d="M113.59 71.82l-6.9 26 5.09 0 1.58 -5.48 6.47 0 1.55 5.48 5.74 0 -6.87 -26 -6.66 0zm0.79 16.16c0.5,-1.88 0.76,-3.36 1.22,-5.47 0.4,-1.92 1.09,-5.38 1.09,-5.38 0,0 0.6,3.6 0.93,5.34 0.26,1.52 0.62,3.04 1.12,5.51l-4.36 0z" class="fil3" id="_4"></path>
     <polygon points="134.15,71.82 128.87,71.82 128.87,97.82 134.15,97.82" class="fil3" id="_5"></polygon>
     <g>
      <rect ry="1.55" rx="0.43" height="3.09" width="93.71" y="103.21" x="48.33" class="fil4"></rect>
      <path d="M62.09 117.22l-2.1 0c0,0.85 -0.22,1.5 -0.66,1.92 -0.45,0.43 -1.08,0.64 -1.9,0.64 -1.8,0 -2.7,-1.02 -2.7,-3.05l0 -2.04c0,-2.04 0.9,-3.06 2.7,-3.06 1.71,0 2.56,0.86 2.56,2.56l2.1 0 0 -0.18c0,-1.34 -0.42,-2.37 -1.26,-3.1 -0.84,-0.73 -1.98,-1.1 -3.42,-1.1 -1.41,0 -2.56,0.39 -3.44,1.18 -0.89,0.79 -1.33,1.98 -1.33,3.57l0 2.31c0,1.58 0.45,2.76 1.34,3.55 0.89,0.78 2.03,1.17 3.43,1.17 1.44,0 2.58,-0.36 3.42,-1.09 0.84,-0.72 1.26,-1.76 1.26,-3.09l0 -0.19z" class="fil3"></path>
      <polygon points="72.61,121.42 72.61,119.58 67.01,119.58 67.01,116.51 72,116.51 72,114.69 67.01,114.69 67.01,111.76 72.58,111.76 72.58,109.93 64.96,109.93 64.96,121.42" class="fil3" id="_1_0"></polygon>
      <path d="M84.24 121.42l-2.35 -4.63c0.67,-0.26 1.21,-0.67 1.62,-1.23 0.41,-0.56 0.62,-1.25 0.62,-2.06 0,-1.12 -0.34,-2 -1.02,-2.62 -0.68,-0.63 -1.54,-0.95 -2.58,-0.95l-5.06 0 0 11.49 2.05 0 0 -4.32 2.35 0 2.07 4.32 2.3 0zm-6.72 -6.07l0 -3.64 2.82 0c0.55,0 0.98,0.15 1.29,0.46 0.31,0.31 0.46,0.75 0.46,1.31 0,0.57 -0.16,1.02 -0.49,1.36 -0.33,0.34 -0.77,0.51 -1.32,0.51l-2.76 0z" class="fil3" id="_2_1"></path>
      <polygon points="91.78,121.42 91.78,111.74 95.02,111.74 95.02,109.93 86.38,109.93 86.38,111.74 89.65,111.74 89.65,121.42" class="fil3" id="_3_2"></polygon>
      <polygon points="99.76,121.42 99.76,109.93 97.64,109.93 97.64,121.42" class="fil3" id="_4_3"></polygon>
      <polygon points="109.84,116.66 109.84,114.84 104.91,114.84 104.91,111.76 110.3,111.76 110.3,109.93 102.84,109.93 102.84,121.42 104.91,121.42 104.91,116.66" class="fil3" id="_5_4"></polygon>
      <polygon points="115.11,121.42 115.11,109.93 113,109.93 113,121.42" class="fil3" id="_6"></polygon>
      <polygon points="125.9,121.42 125.9,119.58 120.29,119.58 120.29,116.51 125.28,116.51 125.28,114.69 120.29,114.69 120.29,111.76 125.87,111.76 125.87,109.93 118.24,109.93 118.24,121.42" class="fil3" id="_7"></polygon>
      <path d="M135.64 116.5c0,2.06 -1,3.1 -2.98,3.1l-1.84 0 0 -7.88 1.84 0c1.98,0 2.98,1.05 2.98,3.15l0 1.63zm-3 4.92c0.7,0 1.35,-0.09 1.94,-0.27 0.59,-0.18 1.13,-0.46 1.6,-0.83 0.48,-0.38 0.86,-0.89 1.13,-1.55 0.27,-0.65 0.41,-1.41 0.41,-2.27l0 -1.64c0,-1.69 -0.47,-2.93 -1.41,-3.73 -0.94,-0.8 -2.16,-1.2 -3.64,-1.2l-3.92 0 0 11.49 3.89 0z" class="fil3" id="_8"></path>
      <rect ry="1.36" rx="0.38" height="2.72" width="82.27" y="125.48" x="54.06" class="fil4"></rect>
     </g>
    </g>
   </g>
   <path d="M32.18 95.45c0,-34.89 28.38,-63.27 63.27,-63.27 34.89,0 63.27,28.38 63.27,63.27 0,34.89 -28.38,63.27 -63.27,63.27 -34.89,0 -63.27,-28.38 -63.27,-63.27z" class="fil5"></path>
   <path d="M162.82 57.49c3.38,5.79 5.99,11.99 7.78,18.45" class="fil0 str2"></path>
   <path d="M19.54 78.93c1.54,-6.56 3.92,-12.89 7.08,-18.83" class="fil0 str2"></path>
  </g>
  <circle r="70.65" cy="95.45" cx="95.45" class="fil0"></circle>
  <path d="M33.35 52.61l-1.72 2.38 -4.34 -3.15c-0.4,-0.28 -0.63,-0.63 -0.69,-1.02 -0.06,-0.39 0.06,-0.79 0.34,-1.17 0.16,-0.22 0.33,-0.42 0.51,-0.61 0.18,-0.18 0.31,-0.31 0.41,-0.4l5.49 3.97zm-0.46 1.4l-1.92 -1.39 3.43 -4.74c0.15,0.02 0.33,0.06 0.53,0.12 0.2,0.07 0.39,0.17 0.58,0.31 0.34,0.24 0.53,0.49 0.59,0.76 0.04,0.27 -0.02,0.54 -0.21,0.8l-3 4.14zm-4.04 -2.97l-1.91 -1.39 3.79 -5.24c0.14,0 0.31,0.04 0.52,0.11 0.2,0.07 0.4,0.17 0.59,0.31 0.34,0.24 0.53,0.5 0.59,0.77 0.04,0.27 -0.02,0.53 -0.21,0.8l-3.37 4.64zm1.85 3.28l1.73 -2.39 4.83 3.49c-0.03,0.12 -0.12,0.29 -0.24,0.52 -0.13,0.23 -0.27,0.45 -0.43,0.67 -0.34,0.48 -0.67,0.75 -0.97,0.82 -0.31,0.07 -0.67,-0.04 -1.08,-0.33l-3.84 -2.78z" class="fil2"></path>
  <path d="M44.2 40.02c0.73,0.69 1.23,1.44 1.49,2.25 0.26,0.81 0.29,1.62 0.07,2.43 -0.21,0.81 -0.66,1.58 -1.35,2.3 -0.67,0.72 -1.41,1.21 -2.21,1.49 -0.8,0.27 -1.61,0.29 -2.43,0.08 -0.82,-0.22 -1.6,-0.67 -2.35,-1.38 -0.74,-0.7 -1.23,-1.45 -1.48,-2.25 -0.25,-0.81 -0.27,-1.62 -0.05,-2.44 0.21,-0.82 0.65,-1.59 1.32,-2.29 0.67,-0.72 1.41,-1.2 2.22,-1.46 0.8,-0.26 1.61,-0.28 2.44,-0.07 0.83,0.21 1.6,0.65 2.33,1.34zm-5.34 1.75c-0.42,0.44 -0.58,0.95 -0.48,1.53 0.09,0.58 0.45,1.16 1.07,1.75 0.63,0.59 1.23,0.92 1.81,0.98 0.57,0.06 1.07,-0.13 1.5,-0.58 0.43,-0.46 0.59,-0.97 0.49,-1.54 -0.1,-0.58 -0.46,-1.16 -1.08,-1.74 -0.61,-0.58 -1.21,-0.91 -1.79,-0.98 -0.58,-0.06 -1.09,0.13 -1.52,0.58z" class="fil2" id="_1_5"></path>
  <path d="M53.54 32.6c0.63,0.79 1.01,1.61 1.15,2.44 0.14,0.84 0.05,1.64 -0.28,2.42 -0.33,0.77 -0.89,1.47 -1.68,2.08 -0.77,0.61 -1.57,0.99 -2.4,1.14 -0.83,0.15 -1.63,0.06 -2.41,-0.27 -0.78,-0.33 -1.49,-0.9 -2.12,-1.7 -0.64,-0.81 -1.02,-1.62 -1.15,-2.45 -0.12,-0.83 -0.02,-1.64 0.31,-2.42 0.33,-0.78 0.88,-1.47 1.64,-2.07 0.77,-0.61 1.58,-0.99 2.41,-1.12 0.83,-0.14 1.64,-0.05 2.43,0.28 0.78,0.33 1.48,0.89 2.1,1.67zm-5.53 0.95c-0.48,0.38 -0.71,0.86 -0.7,1.45 0,0.58 0.28,1.21 0.8,1.88 0.54,0.68 1.09,1.09 1.65,1.24 0.56,0.14 1.08,0.02 1.57,-0.36 0.48,-0.39 0.72,-0.87 0.71,-1.45 -0.02,-0.59 -0.29,-1.21 -0.82,-1.88 -0.52,-0.66 -1.06,-1.07 -1.63,-1.23 -0.57,-0.15 -1.09,-0.03 -1.58,0.35z" class="fil2" id="_2_6"></path>
  <path d="M62.3 30.45l-2.68 -5.2 2.56 -1.31 2.84 5.52c0.14,0.28 0.21,0.54 0.19,0.79 -0.02,0.25 -0.11,0.51 -0.29,0.79 -0.21,0.37 -0.52,0.76 -0.94,1.17 -0.42,0.42 -0.96,0.79 -1.61,1.13 -0.96,0.49 -1.87,0.76 -2.73,0.79 -0.86,0.04 -1.65,-0.17 -2.36,-0.63 -0.71,-0.46 -1.31,-1.17 -1.81,-2.14 -0.52,-1.01 -0.75,-1.95 -0.7,-2.79 0.05,-0.85 0.32,-1.61 0.81,-2.27 0.49,-0.66 1.13,-1.19 1.93,-1.6 0.41,-0.21 0.81,-0.36 1.18,-0.43 0.36,-0.08 0.68,-0.1 0.96,-0.08l1.08 2.11c-0.23,-0.06 -0.51,-0.08 -0.83,-0.05 -0.33,0.02 -0.66,0.11 -1.01,0.29 -0.4,0.21 -0.71,0.48 -0.93,0.81 -0.23,0.34 -0.33,0.72 -0.32,1.17 0.01,0.45 0.16,0.95 0.44,1.5 0.41,0.8 0.9,1.3 1.46,1.5 0.56,0.19 1.15,0.13 1.77,-0.19 0.25,-0.13 0.46,-0.28 0.62,-0.44 0.17,-0.17 0.29,-0.32 0.37,-0.44zm0.14 -6.02l-2.55 1.34 -2.32 -4.51c0.09,-0.09 0.23,-0.2 0.41,-0.34 0.2,-0.14 0.41,-0.28 0.65,-0.4 0.51,-0.26 0.92,-0.36 1.23,-0.3 0.3,0.06 0.57,0.32 0.81,0.78l1.77 3.43z" class="fil2" id="_3_7"></path>
  <path d="M74.69 25.76c0.67,-0.19 1.12,-0.44 1.35,-0.77 0.22,-0.33 0.29,-0.66 0.19,-0.99 -0.08,-0.31 -0.27,-0.53 -0.55,-0.66 -0.29,-0.13 -0.68,-0.2 -1.16,-0.21l-1.08 -0.04c-0.74,-0.04 -1.4,-0.12 -2,-0.25 -0.59,-0.13 -1.09,-0.37 -1.49,-0.73 -0.41,-0.36 -0.7,-0.87 -0.89,-1.55 -0.29,-1.03 -0.13,-1.96 0.48,-2.8 0.62,-0.83 1.63,-1.44 3.02,-1.83 0.71,-0.2 1.37,-0.31 1.96,-0.33 0.59,-0.01 1.08,0.07 1.48,0.25 0.39,0.17 0.64,0.46 0.75,0.85 0.08,0.28 0.08,0.55 0.01,0.79 -0.07,0.24 -0.19,0.46 -0.35,0.67 -0.34,-0.12 -0.77,-0.19 -1.28,-0.2 -0.52,0 -1.06,0.07 -1.63,0.23 -0.6,0.17 -1.02,0.39 -1.27,0.67 -0.24,0.27 -0.32,0.57 -0.24,0.88 0.08,0.25 0.23,0.43 0.48,0.52 0.24,0.1 0.58,0.16 1.01,0.17l1.12 0.03c1.23,0.04 2.23,0.26 3.01,0.66 0.77,0.41 1.29,1.1 1.57,2.08 0.29,1.04 0.12,2.01 -0.5,2.89 -0.63,0.88 -1.71,1.54 -3.24,1.96 -0.77,0.22 -1.47,0.33 -2.11,0.33 -0.65,0.01 -1.19,-0.1 -1.63,-0.31 -0.45,-0.21 -0.72,-0.52 -0.84,-0.93 -0.09,-0.33 -0.07,-0.63 0.06,-0.92 0.13,-0.28 0.29,-0.51 0.5,-0.69 0.41,0.18 0.9,0.31 1.47,0.39 0.57,0.07 1.16,0.02 1.8,-0.16z" class="fil2" id="_4_8"></path>
  <path d="M85.58 23.62c0.29,-0.03 0.58,-0.1 0.86,-0.2 0.28,-0.09 0.48,-0.19 0.6,-0.28l-0.24 -1.85 -1.6 0.37c-0.43,0.08 -0.77,0.21 -1,0.4 -0.24,0.19 -0.34,0.44 -0.3,0.74 0.04,0.31 0.19,0.54 0.46,0.7 0.27,0.15 0.68,0.19 1.22,0.12zm-1.13 -7.68c1.34,-0.18 2.44,-0.04 3.31,0.42 0.87,0.45 1.38,1.26 1.53,2.43l0.57 4.37c0.05,0.32 0,0.59 -0.15,0.81 -0.14,0.23 -0.33,0.42 -0.56,0.6 -0.36,0.28 -0.81,0.52 -1.37,0.73 -0.55,0.21 -1.19,0.37 -1.93,0.46 -1.3,0.17 -2.38,0.05 -3.23,-0.36 -0.84,-0.41 -1.33,-1.13 -1.46,-2.14 -0.11,-0.87 0.07,-1.58 0.55,-2.12 0.47,-0.54 1.24,-0.93 2.29,-1.17l2.53 -0.6 -0.03 -0.23c-0.06,-0.44 -0.27,-0.73 -0.64,-0.88 -0.36,-0.15 -0.86,-0.18 -1.49,-0.1 -0.49,0.07 -0.96,0.18 -1.41,0.36 -0.45,0.18 -0.86,0.37 -1.21,0.57 -0.17,-0.08 -0.32,-0.22 -0.45,-0.42 -0.14,-0.2 -0.23,-0.41 -0.26,-0.64 -0.07,-0.54 0.18,-0.97 0.74,-1.29 0.35,-0.21 0.77,-0.37 1.25,-0.51 0.49,-0.13 0.96,-0.23 1.42,-0.29z" class="fil2" id="_5_9"></path>
  <path d="M94.44 18.37l-0.07 -2.21 3.78 -0.12c0.07,0.1 0.14,0.25 0.21,0.44 0.07,0.19 0.11,0.4 0.12,0.63 0.01,0.4 -0.07,0.7 -0.23,0.88 -0.17,0.18 -0.41,0.27 -0.72,0.28l-3.09 0.1zm0.35 -3l0.09 2.64 -2.74 0.09 -0.09 -2.74c-0.03,-0.86 0.13,-1.55 0.47,-2.1 0.34,-0.54 0.81,-0.95 1.43,-1.22 0.62,-0.27 1.32,-0.42 2.08,-0.44 0.9,-0.03 1.58,0.07 2.04,0.29 0.45,0.23 0.69,0.6 0.7,1.13 0.01,0.24 -0.03,0.44 -0.12,0.63 -0.09,0.18 -0.19,0.33 -0.31,0.44 -0.24,-0.07 -0.51,-0.13 -0.8,-0.17 -0.28,-0.04 -0.6,-0.06 -0.95,-0.05 -0.61,0.02 -1.07,0.15 -1.37,0.38 -0.3,0.23 -0.45,0.6 -0.43,1.12zm-2.67 2.16l2.87 -0.09 0.24 7.32c-0.13,0.04 -0.31,0.08 -0.54,0.12 -0.23,0.04 -0.49,0.07 -0.76,0.07 -0.54,0.02 -0.94,-0.06 -1.2,-0.25 -0.26,-0.18 -0.4,-0.53 -0.41,-1.03l-0.2 -6.14z" class="fil2" id="_6_10"></path>
  <path d="M101.84 21.74l0.14 -1.94 4.87 -0.12c0.03,-0.36 -0.08,-0.71 -0.33,-1.06 -0.24,-0.34 -0.63,-0.55 -1.19,-0.63 -0.57,-0.07 -1.08,0.06 -1.52,0.4 -0.43,0.34 -0.71,0.87 -0.83,1.58l-0.08 1.34c0.02,0.73 0.25,1.27 0.7,1.64 0.45,0.36 1.01,0.59 1.67,0.68 0.54,0.07 1.06,0.06 1.56,-0.03 0.49,-0.09 0.9,-0.2 1.21,-0.33 0.18,0.14 0.32,0.32 0.41,0.54 0.1,0.23 0.13,0.45 0.1,0.68 -0.05,0.39 -0.25,0.69 -0.58,0.9 -0.34,0.22 -0.78,0.36 -1.33,0.42 -0.55,0.06 -1.16,0.04 -1.84,-0.05 -0.99,-0.13 -1.86,-0.44 -2.6,-0.91 -0.74,-0.48 -1.28,-1.12 -1.63,-1.92 -0.35,-0.81 -0.46,-1.77 -0.31,-2.88 0.11,-0.83 0.34,-1.52 0.68,-2.09 0.34,-0.57 0.76,-1.02 1.26,-1.35 0.49,-0.34 1.03,-0.56 1.62,-0.68 0.58,-0.12 1.17,-0.14 1.78,-0.06 0.88,0.12 1.63,0.4 2.24,0.84 0.62,0.44 1.07,0.99 1.36,1.64 0.3,0.65 0.39,1.38 0.29,2.17 -0.06,0.4 -0.21,0.69 -0.45,0.86 -0.25,0.18 -0.57,0.27 -0.96,0.27l-6.24 0.09z" class="fil2" id="_7_11"></path>
  <path d="M111.66 21.43l2.78 0.64 -0.47 2.03c-0.08,0.35 -0.02,0.63 0.16,0.85 0.19,0.21 0.5,0.37 0.91,0.47 0.19,0.04 0.4,0.06 0.63,0.07 0.23,0.01 0.43,0 0.6,-0.03 0.07,0.14 0.13,0.3 0.18,0.48 0.04,0.18 0.04,0.38 -0.01,0.6 -0.1,0.42 -0.36,0.74 -0.77,0.93 -0.42,0.2 -1.05,0.2 -1.88,0.01 -1.06,-0.25 -1.83,-0.67 -2.31,-1.29 -0.47,-0.61 -0.58,-1.46 -0.33,-2.55l0.51 -2.21zm2.18 -1.31l0.49 -2.16 3.63 0.84c0.05,0.11 0.08,0.27 0.09,0.48 0.02,0.2 0.01,0.41 -0.05,0.64 -0.08,0.38 -0.23,0.64 -0.44,0.77 -0.21,0.14 -0.46,0.18 -0.75,0.11l-2.97 -0.68zm0.49 2.42l-2.78 -0.64 1.57 -6.79c0.13,-0.01 0.32,-0.01 0.56,0 0.23,0 0.48,0.04 0.73,0.1 0.54,0.12 0.91,0.31 1.11,0.55 0.19,0.25 0.23,0.62 0.12,1.12l-1.31 5.66z" class="fil2" id="_8_12"></path>
  <path d="M120.14 26.74c-0.03,-0.47 -0.06,-1.04 -0.06,-1.69 0,-0.65 0.02,-1.42 0.08,-2.28 0.06,-0.87 0.14,-1.86 0.26,-2.98 0.21,-0.1 0.47,-0.15 0.76,-0.18 0.29,-0.02 0.58,0.03 0.87,0.14 0.38,0.15 0.66,0.35 0.84,0.6 0.18,0.25 0.24,0.61 0.2,1.09 -0.07,0.99 -0.13,1.98 -0.19,2.95 -0.05,0.98 -0.11,1.97 -0.16,2.96l0.08 0.03c0.41,-0.47 0.86,-1 1.33,-1.61 0.48,-0.61 0.95,-1.24 1.42,-1.9 0.46,-0.66 0.89,-1.31 1.28,-1.93 0.2,-0.02 0.41,-0.02 0.63,0 0.21,0.02 0.42,0.07 0.62,0.15 0.38,0.15 0.67,0.35 0.88,0.62 0.21,0.27 0.24,0.6 0.09,0.98 -0.13,0.34 -0.35,0.74 -0.64,1.19 -0.29,0.46 -0.64,0.94 -1.02,1.45 -0.4,0.51 -0.82,1.01 -1.28,1.52 -0.46,0.51 -0.92,1 -1.39,1.46 -0.46,0.46 -0.9,0.86 -1.33,1.21 -1.09,0.89 -2.02,1.5 -2.78,1.85 -0.77,0.35 -1.43,0.42 -1.97,0.21 -0.43,-0.17 -0.74,-0.44 -0.92,-0.82 -0.19,-0.37 -0.23,-0.77 -0.13,-1.21 0.35,-0.11 0.72,-0.26 1.11,-0.44 0.39,-0.17 0.77,-0.37 1.14,-0.59 0.38,-0.22 0.73,-0.46 1.04,-0.7 -0.18,-0.13 -0.34,-0.35 -0.48,-0.64 -0.14,-0.29 -0.23,-0.77 -0.28,-1.44z" class="fil2" id="_9"></path>
  <path d="M135.1 34.74c0.25,0.15 0.51,0.29 0.79,0.39 0.28,0.11 0.49,0.17 0.64,0.17l1 -1.58 -1.46 -0.74c-0.39,-0.21 -0.73,-0.32 -1.03,-0.33 -0.31,-0.01 -0.54,0.12 -0.7,0.38 -0.17,0.27 -0.2,0.54 -0.09,0.83 0.1,0.29 0.39,0.58 0.85,0.88zm4.05 -6.63c1.14,0.72 1.9,1.54 2.28,2.44 0.37,0.9 0.25,1.85 -0.38,2.85l-2.36 3.72c-0.18,0.28 -0.39,0.45 -0.64,0.53 -0.25,0.08 -0.52,0.11 -0.82,0.1 -0.45,-0.01 -0.95,-0.12 -1.51,-0.31 -0.56,-0.19 -1.15,-0.49 -1.78,-0.88 -1.11,-0.71 -1.86,-1.49 -2.25,-2.35 -0.38,-0.86 -0.3,-1.72 0.25,-2.58 0.47,-0.75 1.06,-1.17 1.77,-1.28 0.71,-0.11 1.55,0.08 2.51,0.57l2.33 1.15 0.13 -0.19c0.23,-0.38 0.26,-0.74 0.07,-1.08 -0.18,-0.35 -0.55,-0.69 -1.08,-1.03 -0.42,-0.27 -0.86,-0.48 -1.32,-0.63 -0.46,-0.15 -0.89,-0.26 -1.29,-0.34 -0.08,-0.17 -0.1,-0.37 -0.08,-0.61 0.02,-0.24 0.09,-0.46 0.22,-0.65 0.29,-0.47 0.75,-0.64 1.39,-0.53 0.4,0.07 0.83,0.21 1.28,0.42 0.47,0.2 0.89,0.43 1.28,0.68z" class="fil2" id="_10"></path>
  <path d="M150.12 41.34l-1.2 1.39 -2.18 -1.89 1.12 -1.31c0.32,-0.37 0.44,-0.72 0.38,-1.08 -0.06,-0.35 -0.27,-0.67 -0.61,-0.97 -0.24,-0.21 -0.5,-0.38 -0.76,-0.49 -0.26,-0.11 -0.51,-0.2 -0.75,-0.25l-1.77 2.04 -2.17 -1.88 1.98 -2.29c0.21,-0.24 0.43,-0.4 0.68,-0.48 0.24,-0.07 0.51,-0.09 0.82,-0.05 0.5,0.06 1.06,0.23 1.67,0.51 0.61,0.28 1.21,0.67 1.8,1.18 1.06,0.92 1.68,1.85 1.85,2.82 0.18,0.96 -0.11,1.88 -0.86,2.75zm-7.36 -5.11l2.18 1.87 -3.33 3.86c-0.12,-0.06 -0.28,-0.15 -0.48,-0.28 -0.2,-0.13 -0.4,-0.28 -0.6,-0.46 -0.42,-0.35 -0.66,-0.69 -0.72,-1 -0.06,-0.31 0.07,-0.65 0.4,-1.04l2.55 -2.95zm4.56 3.93l2.19 1.89 -3.33 3.85c-0.12,-0.05 -0.28,-0.14 -0.48,-0.27 -0.19,-0.13 -0.39,-0.28 -0.6,-0.46 -0.41,-0.36 -0.65,-0.69 -0.72,-1.01 -0.07,-0.31 0.06,-0.66 0.39,-1.04l2.55 -2.96z" class="fil2" id="_11"></path>
  <path d="M153.26 50.93l4.58 -3.62 1.79 2.26 -4.88 3.85c-0.25,0.19 -0.5,0.3 -0.74,0.33 -0.25,0.03 -0.53,-0.01 -0.84,-0.13 -0.4,-0.13 -0.84,-0.36 -1.32,-0.7 -0.49,-0.33 -0.96,-0.79 -1.42,-1.37 -0.67,-0.84 -1.1,-1.68 -1.3,-2.52 -0.2,-0.84 -0.14,-1.65 0.17,-2.43 0.31,-0.79 0.9,-1.52 1.75,-2.19 0.9,-0.7 1.77,-1.11 2.61,-1.23 0.84,-0.11 1.63,0.01 2.38,0.37 0.74,0.35 1.38,0.88 1.94,1.58 0.29,0.37 0.5,0.72 0.64,1.07 0.15,0.35 0.24,0.66 0.27,0.93l-1.86 1.47c0.01,-0.24 -0.03,-0.51 -0.11,-0.83 -0.08,-0.31 -0.25,-0.62 -0.49,-0.93 -0.28,-0.35 -0.6,-0.61 -0.97,-0.76 -0.37,-0.15 -0.77,-0.19 -1.2,-0.09 -0.44,0.1 -0.9,0.34 -1.39,0.72 -0.71,0.56 -1.11,1.14 -1.19,1.72 -0.08,0.58 0.09,1.15 0.52,1.7 0.18,0.23 0.36,0.4 0.56,0.53 0.19,0.13 0.35,0.22 0.5,0.27zm5.92 -1.01l-1.79 -2.25 3.98 -3.14c0.1,0.07 0.24,0.19 0.41,0.35 0.18,0.15 0.35,0.34 0.52,0.55 0.35,0.45 0.53,0.83 0.53,1.14 0,0.32 -0.21,0.64 -0.61,0.96l-3.04 2.39z" class="fil2" id="_12"></path>
 </g>
</svg>
